<svg fill="none" height="100%" width="100%" viewBox="0 0 500 500" xmlns:xlink="http://www.w3.org/1999/xlink" xmlns="http://www.w3.org/2000/svg"><g visibility="hidden" id="i0"><animate repeatCount="indefinite" begin="0s" calcMode="discrete" dur="3.033s" values="hidden; visible; visible; visible" keyTimes="0; 0.109988; 0.99989; 1" attributeName="visibility" /><g transform="translate(249.673,154.906)"><animateTransform repeatCount="indefinite" type="translate" attributeName="transform" dur="3.033s" begin="0s" calcMode="spline" values="249.673 154.906; 249.673 154.906; 249.673 156.963; 249.673 162.206; 249.673 169.704; 249.673 178.893; 249.673 189.397; 249.673 200.889; 249.673 213.11; 249.673 238.468; 249.673 249.906; 249.673 244.913; 249.673 241.752; 249.673 240.425; 249.673 240.932; 249.673 243.271; 249.673 247.444; 249.673 248.178; 249.673 246.473; 249.673 246.601; 249.673 248.562; 249.673 248.667; 249.673 249.723; 249.673 249.723" keyTimes="0; 0.21978; 0.230769; 0.241758; 0.252747; 0.263736; 0.274725; 0.285715; 0.296703; 0.318681; 0.329671; 0.34066; 0.351648; 0.362637; 0.373627; 0.384616; 0.395605; 0.406593; 0.417583; 0.428572; 0.439561; 0.461539; 0.472528; 1" keySplines="0 0 1 1; 0 0 1 1; 0 0 1 1; 0 0 1 1; 0 0 1 1; 0 0 1 1; 0 0 1 1; 0 0 1 1; 0 0 1 1; 0 0 1 1; 0 0 1 1; 0 0 1 1; 0 0 1 1; 0 0 1 1; 0 0 1 1; 0 0 1 1; 0 0 1 1; 0 0 1 1; 0 0 1 1; 0 0 1 1; 0 0 1 1; 0 0 1 1; 0 0 1 1" fill="freeze" /><g transform="scale(0,0)"><animateTransform repeatCount="indefinite" type="scale" attributeName="transform" dur="3.033s" begin="0s" calcMode="spline" values="0 0; 0 0; 1 1; 1 1" keyTimes="0; 0.10989; 0.21978; 1" keySplines="0 0 1 1; 0.333 0 0 1; 0 0 1 1" fill="freeze" /><g transform="translate(-249.673,-249.906)"><g id="i1" transform="matrix(1,0,0,1,163.561,210.764)"><path fill="#c9f7b6" d="M-7.828,-7.828C-7.828,-7.828,7.828,-7.828,7.828,-7.828C7.828,0.819,0.819,7.828,-7.828,7.828C-7.828,7.828,-7.828,-7.828,-7.828,-7.828Z" /></g><g id="i2" transform="matrix(1,0,0,1,339.7,210.764)"><path fill="#c9f7b6" d="M7.828,-7.828C7.828,-7.828,-7.828,-7.828,-7.828,-7.828C-7.828,0.819,-0.819,7.828,7.828,7.828C7.828,7.828,7.828,-7.828,7.828,-7.828Z" /></g><g id="i3" transform="matrix(1,0,0,1,163.561,273.392)"><path fill="#c9f7b6" d="M7.828,7.828C7.828,7.828,-7.828,7.828,-7.828,7.828C-7.828,7.828,-7.828,-7.828,-7.828,-7.828C0.819,-7.828,7.828,-0.819,7.828,7.828Z" /></g><g id="i4" transform="matrix(1,0,0,1,202.703,242.078)"><path fill="#7bb57a" d="M-31.314,-39.142C-31.314,-39.142,46.971,-39.142,46.971,-39.142C25.353,-39.142,7.828,-21.618,7.828,0C7.828,21.618,25.353,39.142,46.971,39.142C46.971,39.142,-31.314,39.142,-31.314,39.142C-31.314,30.495,-38.324,23.485,-46.971,23.485C-46.971,23.485,-46.971,-23.485,-46.971,-23.485C-38.324,-23.485,-31.314,-30.495,-31.314,-39.142Z" /></g><g id="i5" transform="matrix(1,0,0,1,298.601,242.078)"><path fill="#7bb57a" d="M48.928,-23.485C48.928,-23.485,48.928,23.485,48.928,23.485C40.281,23.485,33.271,30.495,33.271,39.142C33.271,39.142,-48.928,39.142,-48.928,39.142C-27.31,39.142,-9.786,21.618,-9.786,0C-9.786,-21.618,-27.31,-39.142,-48.928,-39.142C-48.928,-39.142,33.271,-39.142,33.271,-39.142C33.271,-30.495,40.281,-23.485,48.928,-23.485Z" /></g><g id="i6" transform="matrix(1,0,0,1,249.673,242.078)"><path d="M97.855,23.485C97.855,23.485,97.855,-39.142,97.855,-39.142C97.855,-39.142,-93.941,-39.142,-93.941,-39.142C-93.941,-39.142,-93.941,39.142,-93.941,39.142C-93.941,39.142,82.198,39.142,82.198,39.142C82.198,30.495,89.208,23.485,97.855,23.485Z" fill="#c9f7b6" /><rect height="109.598" width="219.196" y="-54.799" x="-109.598" fill="#c9f7b6" /></g><g id="i7" transform="matrix(1,0,0,1,251.63,242.078)"><path fill="#89c585" d="M80.241,43.056C80.241,43.056,-80.241,43.056,-80.241,43.056C-82.403,43.056,-84.156,41.304,-84.156,39.142C-84.156,32.657,-89.413,27.399,-95.898,27.399C-98.06,27.399,-99.812,25.647,-99.812,23.485C-99.812,23.485,-99.812,-23.485,-99.812,-23.485C-99.812,-25.647,-98.06,-27.399,-95.898,-27.399C-89.413,-27.399,-84.156,-32.657,-84.156,-39.142C-84.156,-41.304,-82.403,-43.056,-80.241,-43.056C-80.241,-43.056,80.241,-43.056,80.241,-43.056C82.403,-43.056,84.156,-41.304,84.156,-39.142C84.156,-32.657,89.413,-27.399,95.898,-27.399C98.06,-27.399,99.812,-25.647,99.812,-23.485C99.812,-23.485,99.812,23.485,99.812,23.485C99.812,25.647,98.06,27.399,95.898,27.399C89.413,27.399,84.156,32.657,84.156,39.142C84.156,41.304,82.403,43.056,80.241,43.056ZM-76.719,35.228C-76.719,35.228,76.719,35.228,76.719,35.228C78.299,27.546,84.302,21.542,91.984,19.962C91.984,19.962,91.984,-19.962,91.984,-19.962C84.302,-21.542,78.299,-27.546,76.719,-35.228C76.719,-35.228,-76.719,-35.228,-76.719,-35.228C-78.299,-27.546,-84.302,-21.542,-91.984,-19.962C-91.984,-19.962,-91.984,19.962,-91.984,19.962C-84.302,21.542,-78.299,27.546,-76.719,35.228Z" /></g><g id="i8" transform="matrix(1,0,0,1,249.673,242.078)"><ellipse ry="39.142" rx="39.142" cy="0" cx="0" fill="#c9f7b6" /></g><g id="i9" transform="matrix(1,0,0,1,249.673,242.078)"><path fill="#5b8e63" d="M3.914,-3.914C3.914,-3.914,3.914,-11.743,3.914,-11.743C3.914,-11.743,11.743,-11.743,11.743,-11.743C11.743,-11.743,11.743,-19.571,11.743,-19.571C11.743,-19.571,3.914,-19.571,3.914,-19.571C3.914,-19.571,3.914,-27.399,3.914,-27.399C3.914,-27.399,-3.914,-27.399,-3.914,-27.399C-3.914,-27.399,-3.914,-19.571,-3.914,-19.571C-10.399,-19.571,-15.657,-14.313,-15.657,-7.828C-15.657,-1.343,-10.399,3.914,-3.914,3.914C-3.914,3.914,-3.914,11.743,-3.914,11.743C-3.914,11.743,-11.743,11.743,-11.743,11.743C-11.743,11.743,-11.743,19.571,-11.743,19.571C-11.743,19.571,-3.914,19.571,-3.914,19.571C-3.914,19.571,-3.914,27.399,-3.914,27.399C-3.914,27.399,3.914,27.399,3.914,27.399C3.914,27.399,3.914,19.571,3.914,19.571C10.399,19.571,15.657,14.313,15.657,7.828C15.657,1.343,10.399,-3.914,3.914,-3.914ZM-7.828,-7.828C-7.828,-9.99,-6.076,-11.743,-3.914,-11.743C-3.914,-11.743,-3.914,-3.914,-3.914,-3.914C-6.076,-3.914,-7.828,-5.666,-7.828,-7.828ZM3.914,11.743C3.914,11.743,3.914,3.914,3.914,3.914C6.076,3.914,7.828,5.666,7.828,7.828C7.828,9.99,6.076,11.743,3.914,11.743Z" /></g><g id="i10" transform="matrix(1,0,0,1,183.132,242.078)"><ellipse ry="3.914" rx="3.914" cy="0" cx="0" fill="#c9f7b6" /></g><g id="i11" transform="matrix(1,0,0,1,320.129,242.078)"><ellipse ry="3.914" rx="3.914" cy="0" cx="0" fill="#c9f7b6" /></g><g id="i12" transform="matrix(1,0,0,1,0,0)"><g id="i11" transform="matrix(1,0,0,1,249.673,304.705)"><rect height="15.657" width="219.196" y="-7.829" x="-109.598" fill="#89c585" /></g><g id="i12" transform="matrix(1,0,0,1,249.673,304.705)"><path fill="#5b915a" d="M93.941,-7.828C93.941,-7.828,93.941,-7.828,93.941,-7.828C93.941,-3.504,90.437,0,86.113,0C86.113,0,-109.598,0,-109.598,0C-109.598,0,-109.598,7.828,-109.598,7.828C-109.598,7.828,109.598,7.828,109.598,7.828C109.598,7.828,109.598,-7.828,109.598,-7.828C109.598,-7.828,93.941,-7.828,93.941,-7.828Z" /></g></g></g></g></g></g><g visibility="hidden" id="i13"><animate repeatCount="indefinite" begin="0s" calcMode="discrete" dur="3.033s" values="hidden; visible; visible; visible" keyTimes="0; 0.131985; 0.99989; 1" attributeName="visibility" /><g transform="translate(249.673,139.25)"><animateTransform repeatCount="indefinite" type="translate" attributeName="transform" dur="3.033s" begin="0s" calcMode="spline" values="249.673 139.25; 249.673 139.25; 249.673 141.306; 249.673 146.549; 249.673 154.047; 249.673 163.236; 249.673 173.741; 249.673 185.233; 249.673 197.453; 249.673 222.811; 249.673 234.25; 249.673 229.256; 249.673 226.096; 249.673 224.769; 249.673 225.275; 249.673 227.615; 249.673 231.788; 249.673 232.521; 249.673 230.816; 249.673 230.944; 249.673 232.905; 249.673 233.253; 249.673 233.011; 249.673 234.066; 249.673 234.066" keyTimes="0; 0.241758; 0.252747; 0.263736; 0.274725; 0.285714; 0.296703; 0.307692; 0.318681; 0.340659; 0.351648; 0.362637; 0.373626; 0.384615; 0.395604; 0.406593; 0.417582; 0.428571; 0.43956; 0.450549; 0.461538; 0.472527; 0.483517; 0.494505; 1" keySplines="0 0 1 1; 0 0 1 1; 0 0 1 1; 0 0 1 1; 0 0 1 1; 0 0 1 1; 0 0 1 1; 0 0 1 1; 0 0 1 1; 0 0 1 1; 0 0 1 1; 0 0 1 1; 0 0 1 1; 0 0 1 1; 0 0 1 1; 0 0 1 1; 0 0 1 1; 0 0 1 1; 0 0 1 1; 0 0 1 1; 0 0 1 1; 0 0 1 1; 0 0 1 1; 0 0 1 1" fill="freeze" /><g transform="scale(0,0)"><animateTransform repeatCount="indefinite" type="scale" attributeName="transform" dur="3.033s" begin="0s" calcMode="spline" values="0 0; 0 0; 1 1; 1 1" keyTimes="0; 0.131868; 0.241758; 1" keySplines="0 0 1 1; 0.333 0 0 1; 0 0 1 1" fill="freeze" /><g transform="translate(-249.673,-234.25)"><g id="i1" transform="matrix(1,0,0,1,163.561,195.107)"><path fill="#c9f7b6" d="M-7.828,-7.828C-7.828,-7.828,7.828,-7.828,7.828,-7.828C7.828,0.819,0.819,7.828,-7.828,7.828C-7.828,7.828,-7.828,-7.828,-7.828,-7.828Z" /></g><g id="i2" transform="matrix(1,0,0,1,339.7,195.107)"><path fill="#c9f7b6" d="M7.828,-7.828C7.828,-7.828,-7.828,-7.828,-7.828,-7.828C-7.828,0.819,-0.819,7.828,7.828,7.828C7.828,7.828,7.828,-7.828,7.828,-7.828Z" /></g><g id="i3" transform="matrix(1,0,0,1,163.561,257.735)"><path fill="#c9f7b6" d="M7.828,7.828C7.828,7.828,-7.828,7.828,-7.828,7.828C-7.828,7.828,-7.828,-7.828,-7.828,-7.828C0.819,-7.828,7.828,-0.819,7.828,7.828Z" /></g><g id="i4" transform="matrix(1,0,0,1,202.703,226.421)"><path fill="#7bb57a" d="M-31.314,-39.142C-31.314,-39.142,46.971,-39.142,46.971,-39.142C25.353,-39.142,7.828,-21.618,7.828,0C7.828,21.618,25.353,39.142,46.971,39.142C46.971,39.142,-31.314,39.142,-31.314,39.142C-31.314,30.495,-38.324,23.485,-46.971,23.485C-46.971,23.485,-46.971,-23.485,-46.971,-23.485C-38.324,-23.485,-31.314,-30.495,-31.314,-39.142Z" /></g><g id="i5" transform="matrix(1,0,0,1,298.601,226.421)"><path fill="#7bb57a" d="M48.928,-23.485C48.928,-23.485,48.928,23.485,48.928,23.485C40.281,23.485,33.271,30.495,33.271,39.142C33.271,39.142,-48.928,39.142,-48.928,39.142C-27.31,39.142,-9.786,21.618,-9.786,0C-9.786,-21.618,-27.31,-39.142,-48.928,-39.142C-48.928,-39.142,33.271,-39.142,33.271,-39.142C33.271,-30.495,40.281,-23.485,48.928,-23.485Z" /></g><g id="i6" transform="matrix(1,0,0,1,249.673,226.421)"><path d="M97.855,23.485C97.855,23.485,97.855,-39.142,97.855,-39.142C97.855,-39.142,-93.941,-39.142,-93.941,-39.142C-93.941,-39.142,-93.941,39.142,-93.941,39.142C-93.941,39.142,82.198,39.142,82.198,39.142C82.198,30.495,89.208,23.485,97.855,23.485Z" fill="#c9f7b6" /><rect height="109.598" width="219.196" y="-54.799" x="-109.598" fill="#c9f7b6" /></g><g id="i7" transform="matrix(1,0,0,1,251.63,226.421)"><path fill="#89c585" d="M80.241,43.056C80.241,43.056,-80.241,43.056,-80.241,43.056C-82.403,43.056,-84.156,41.304,-84.156,39.142C-84.156,32.657,-89.413,27.399,-95.898,27.399C-98.06,27.399,-99.812,25.647,-99.812,23.485C-99.812,23.485,-99.812,-23.485,-99.812,-23.485C-99.812,-25.647,-98.06,-27.399,-95.898,-27.399C-89.413,-27.399,-84.156,-32.657,-84.156,-39.142C-84.156,-41.304,-82.403,-43.056,-80.241,-43.056C-80.241,-43.056,80.241,-43.056,80.241,-43.056C82.403,-43.056,84.156,-41.304,84.156,-39.142C84.156,-32.657,89.413,-27.399,95.898,-27.399C98.06,-27.399,99.812,-25.647,99.812,-23.485C99.812,-23.485,99.812,23.485,99.812,23.485C99.812,25.647,98.06,27.399,95.898,27.399C89.413,27.399,84.156,32.657,84.156,39.142C84.156,41.304,82.403,43.056,80.241,43.056ZM-76.719,35.228C-76.719,35.228,76.719,35.228,76.719,35.228C78.299,27.546,84.302,21.542,91.984,19.962C91.984,19.962,91.984,-19.962,91.984,-19.962C84.302,-21.542,78.299,-27.546,76.719,-35.228C76.719,-35.228,-76.719,-35.228,-76.719,-35.228C-78.299,-27.546,-84.302,-21.542,-91.984,-19.962C-91.984,-19.962,-91.984,19.962,-91.984,19.962C-84.302,21.542,-78.299,27.546,-76.719,35.228Z" /></g><g id="i8" transform="matrix(1,0,0,1,249.673,226.421)"><ellipse ry="39.142" rx="39.142" cy="0" cx="0" fill="#c9f7b6" /></g><g id="i9" transform="matrix(1,0,0,1,249.673,226.421)"><path fill="#5b8e63" d="M3.914,-3.914C3.914,-3.914,3.914,-11.743,3.914,-11.743C3.914,-11.743,11.743,-11.743,11.743,-11.743C11.743,-11.743,11.743,-19.571,11.743,-19.571C11.743,-19.571,3.914,-19.571,3.914,-19.571C3.914,-19.571,3.914,-27.399,3.914,-27.399C3.914,-27.399,-3.914,-27.399,-3.914,-27.399C-3.914,-27.399,-3.914,-19.571,-3.914,-19.571C-10.399,-19.571,-15.657,-14.313,-15.657,-7.828C-15.657,-1.343,-10.399,3.914,-3.914,3.914C-3.914,3.914,-3.914,11.743,-3.914,11.743C-3.914,11.743,-11.743,11.743,-11.743,11.743C-11.743,11.743,-11.743,19.571,-11.743,19.571C-11.743,19.571,-3.914,19.571,-3.914,19.571C-3.914,19.571,-3.914,27.399,-3.914,27.399C-3.914,27.399,3.914,27.399,3.914,27.399C3.914,27.399,3.914,19.571,3.914,19.571C10.399,19.571,15.657,14.313,15.657,7.828C15.657,1.343,10.399,-3.914,3.914,-3.914ZM-7.828,-7.828C-7.828,-9.99,-6.076,-11.743,-3.914,-11.743C-3.914,-11.743,-3.914,-3.914,-3.914,-3.914C-6.076,-3.914,-7.828,-5.666,-7.828,-7.828ZM3.914,11.743C3.914,11.743,3.914,3.914,3.914,3.914C6.076,3.914,7.828,5.666,7.828,7.828C7.828,9.99,6.076,11.743,3.914,11.743Z" /></g><g id="i10" transform="matrix(1,0,0,1,183.132,226.421)"><ellipse ry="3.914" rx="3.914" cy="0" cx="0" fill="#c9f7b6" /></g><g id="i11" transform="matrix(1,0,0,1,320.129,226.421)"><ellipse ry="3.914" rx="3.914" cy="0" cx="0" fill="#c9f7b6" /></g><g id="i12" transform="matrix(1,0,0,1,0,0)"><g id="i11" transform="matrix(1,0,0,1,249.673,289.049)"><rect height="15.657" width="219.196" y="-7.829" x="-109.598" fill="#89c585" /></g><g id="i12" transform="matrix(1,0,0,1,249.673,289.049)"><path fill="#5b915a" d="M93.941,-7.828C93.941,-7.828,93.941,-7.828,93.941,-7.828C93.941,-3.504,90.437,0,86.113,0C86.113,0,-109.598,0,-109.598,0C-109.598,0,-109.598,7.828,-109.598,7.828C-109.598,7.828,109.598,7.828,109.598,7.828C109.598,7.828,109.598,-7.828,109.598,-7.828C109.598,-7.828,93.941,-7.828,93.941,-7.828Z" /></g></g></g></g></g></g><g visibility="hidden" id="i14"><animate repeatCount="indefinite" begin="0s" calcMode="discrete" dur="3.033s" values="hidden; visible; visible; visible" keyTimes="0; 0.153983; 0.99989; 1" attributeName="visibility" /><g transform="translate(249.673,123.593)"><animateTransform repeatCount="indefinite" type="translate" attributeName="transform" dur="3.033s" begin="0s" calcMode="spline" values="249.673 123.593; 249.673 123.593; 249.673 125.649; 249.673 130.892; 249.673 138.39; 249.673 147.579; 249.673 158.084; 249.673 169.576; 249.673 181.796; 249.673 207.154; 249.673 218.593; 249.673 213.599; 249.673 210.439; 249.673 209.112; 249.673 209.618; 249.673 211.958; 249.673 216.131; 249.673 216.865; 249.673 215.159; 249.673 215.287; 249.673 217.248; 249.673 217.596; 249.673 217.354; 249.673 218.409; 249.673 218.409" keyTimes="0; 0.263736; 0.274725; 0.285714; 0.296703; 0.307692; 0.318681; 0.32967; 0.340659; 0.362637; 0.373627; 0.384615; 0.395604; 0.406593; 0.417583; 0.428572; 0.43956; 0.450549; 0.461539; 0.472528; 0.483517; 0.494505; 0.505495; 0.516484; 1" keySplines="0 0 1 1; 0 0 1 1; 0 0 1 1; 0 0 1 1; 0 0 1 1; 0 0 1 1; 0 0 1 1; 0 0 1 1; 0 0 1 1; 0 0 1 1; 0 0 1 1; 0 0 1 1; 0 0 1 1; 0 0 1 1; 0 0 1 1; 0 0 1 1; 0 0 1 1; 0 0 1 1; 0 0 1 1; 0 0 1 1; 0 0 1 1; 0 0 1 1; 0 0 1 1; 0 0 1 1" fill="freeze" /><g transform="scale(0,0)"><animateTransform repeatCount="indefinite" type="scale" attributeName="transform" dur="3.033s" begin="0s" calcMode="spline" values="0 0; 0 0; 1 1; 1 1" keyTimes="0; 0.153846; 0.263736; 1" keySplines="0 0 1 1; 0.333 0 0 1; 0 0 1 1" fill="freeze" /><g transform="translate(-249.673,-218.593)"><g id="i1" transform="matrix(1,0,0,1,163.561,179.451)"><path fill="#c9f7b6" d="M-7.828,-7.828C-7.828,-7.828,7.828,-7.828,7.828,-7.828C7.828,0.819,0.819,7.828,-7.828,7.828C-7.828,7.828,-7.828,-7.828,-7.828,-7.828Z" /></g><g id="i2" transform="matrix(1,0,0,1,339.7,179.451)"><path fill="#c9f7b6" d="M7.828,-7.828C7.828,-7.828,-7.828,-7.828,-7.828,-7.828C-7.828,0.819,-0.819,7.828,7.828,7.828C7.828,7.828,7.828,-7.828,7.828,-7.828Z" /></g><g id="i3" transform="matrix(1,0,0,1,163.561,242.078)"><path fill="#c9f7b6" d="M7.828,7.828C7.828,7.828,-7.828,7.828,-7.828,7.828C-7.828,7.828,-7.828,-7.828,-7.828,-7.828C0.819,-7.828,7.828,-0.819,7.828,7.828Z" /></g><g id="i4" transform="matrix(1,0,0,1,202.703,210.764)"><path fill="#7bb57a" d="M-31.314,-39.142C-31.314,-39.142,46.971,-39.142,46.971,-39.142C25.353,-39.142,7.828,-21.618,7.828,0C7.828,21.618,25.353,39.142,46.971,39.142C46.971,39.142,-31.314,39.142,-31.314,39.142C-31.314,30.495,-38.324,23.485,-46.971,23.485C-46.971,23.485,-46.971,-23.485,-46.971,-23.485C-38.324,-23.485,-31.314,-30.495,-31.314,-39.142Z" /></g><g id="i5" transform="matrix(1,0,0,1,298.601,210.764)"><path fill="#7bb57a" d="M48.928,-23.485C48.928,-23.485,48.928,23.485,48.928,23.485C40.281,23.485,33.271,30.495,33.271,39.142C33.271,39.142,-48.928,39.142,-48.928,39.142C-27.31,39.142,-9.786,21.618,-9.786,0C-9.786,-21.618,-27.31,-39.142,-48.928,-39.142C-48.928,-39.142,33.271,-39.142,33.271,-39.142C33.271,-30.495,40.281,-23.485,48.928,-23.485Z" /></g><g id="i6" transform="matrix(1,0,0,1,249.673,210.764)"><path d="M97.855,23.485C97.855,23.485,97.855,-39.142,97.855,-39.142C97.855,-39.142,-93.941,-39.142,-93.941,-39.142C-93.941,-39.142,-93.941,39.142,-93.941,39.142C-93.941,39.142,82.198,39.142,82.198,39.142C82.198,30.495,89.208,23.485,97.855,23.485Z" fill="#c9f7b6" /><rect height="109.598" width="219.196" y="-54.799" x="-109.598" fill="#c9f7b6" /></g><g id="i7" transform="matrix(1,0,0,1,251.63,210.764)"><path fill="#89c585" d="M80.241,43.056C80.241,43.056,-80.241,43.056,-80.241,43.056C-82.403,43.056,-84.156,41.304,-84.156,39.142C-84.156,32.657,-89.413,27.399,-95.898,27.399C-98.06,27.399,-99.812,25.647,-99.812,23.485C-99.812,23.485,-99.812,-23.485,-99.812,-23.485C-99.812,-25.647,-98.06,-27.399,-95.898,-27.399C-89.413,-27.399,-84.156,-32.657,-84.156,-39.142C-84.156,-41.304,-82.403,-43.056,-80.241,-43.056C-80.241,-43.056,80.241,-43.056,80.241,-43.056C82.403,-43.056,84.156,-41.304,84.156,-39.142C84.156,-32.657,89.413,-27.399,95.898,-27.399C98.06,-27.399,99.812,-25.647,99.812,-23.485C99.812,-23.485,99.812,23.485,99.812,23.485C99.812,25.647,98.06,27.399,95.898,27.399C89.413,27.399,84.156,32.657,84.156,39.142C84.156,41.304,82.403,43.056,80.241,43.056ZM-76.719,35.228C-76.719,35.228,76.719,35.228,76.719,35.228C78.299,27.546,84.302,21.542,91.984,19.962C91.984,19.962,91.984,-19.962,91.984,-19.962C84.302,-21.542,78.299,-27.546,76.719,-35.228C76.719,-35.228,-76.719,-35.228,-76.719,-35.228C-78.299,-27.546,-84.302,-21.542,-91.984,-19.962C-91.984,-19.962,-91.984,19.962,-91.984,19.962C-84.302,21.542,-78.299,27.546,-76.719,35.228Z" /></g><g id="i8" transform="matrix(1,0,0,1,249.673,210.764)"><ellipse ry="39.142" rx="39.142" cy="0" cx="0" fill="#c9f7b6" /></g><g id="i9" transform="matrix(1,0,0,1,249.673,210.764)"><path fill="#5b8e63" d="M3.914,-3.914C3.914,-3.914,3.914,-11.743,3.914,-11.743C3.914,-11.743,11.743,-11.743,11.743,-11.743C11.743,-11.743,11.743,-19.571,11.743,-19.571C11.743,-19.571,3.914,-19.571,3.914,-19.571C3.914,-19.571,3.914,-27.399,3.914,-27.399C3.914,-27.399,-3.914,-27.399,-3.914,-27.399C-3.914,-27.399,-3.914,-19.571,-3.914,-19.571C-10.399,-19.571,-15.657,-14.313,-15.657,-7.828C-15.657,-1.343,-10.399,3.914,-3.914,3.914C-3.914,3.914,-3.914,11.743,-3.914,11.743C-3.914,11.743,-11.743,11.743,-11.743,11.743C-11.743,11.743,-11.743,19.571,-11.743,19.571C-11.743,19.571,-3.914,19.571,-3.914,19.571C-3.914,19.571,-3.914,27.399,-3.914,27.399C-3.914,27.399,3.914,27.399,3.914,27.399C3.914,27.399,3.914,19.571,3.914,19.571C10.399,19.571,15.657,14.313,15.657,7.828C15.657,1.343,10.399,-3.914,3.914,-3.914ZM-7.828,-7.828C-7.828,-9.99,-6.076,-11.743,-3.914,-11.743C-3.914,-11.743,-3.914,-3.914,-3.914,-3.914C-6.076,-3.914,-7.828,-5.666,-7.828,-7.828ZM3.914,11.743C3.914,11.743,3.914,3.914,3.914,3.914C6.076,3.914,7.828,5.666,7.828,7.828C7.828,9.99,6.076,11.743,3.914,11.743Z" /></g><g id="i10" transform="matrix(1,0,0,1,183.132,210.764)"><ellipse ry="3.914" rx="3.914" cy="0" cx="0" fill="#c9f7b6" /></g><g id="i11" transform="matrix(1,0,0,1,320.129,210.764)"><ellipse ry="3.914" rx="3.914" cy="0" cx="0" fill="#c9f7b6" /></g><g id="i12" transform="matrix(1,0,0,1,0,0)"><g id="i11" transform="matrix(1,0,0,1,249.673,273.392)"><rect height="15.657" width="219.196" y="-7.829" x="-109.598" fill="#89c585" /></g><g id="i12" transform="matrix(1,0,0,1,249.673,273.392)"><path fill="#5b915a" d="M93.941,-7.828C93.941,-7.828,93.941,-7.828,93.941,-7.828C93.941,-3.504,90.437,0,86.113,0C86.113,0,-109.598,0,-109.598,0C-109.598,0,-109.598,7.828,-109.598,7.828C-109.598,7.828,109.598,7.828,109.598,7.828C109.598,7.828,109.598,-7.828,109.598,-7.828C109.598,-7.828,93.941,-7.828,93.941,-7.828Z" /></g></g></g></g></g></g><g visibility="hidden" id="i15"><animate repeatCount="indefinite" begin="0s" calcMode="discrete" dur="3.033s" values="hidden; visible; visible; visible" keyTimes="0; 0.175981; 0.99989; 1" attributeName="visibility" /><g transform="translate(249.673,107.936)"><animateTransform repeatCount="indefinite" type="translate" attributeName="transform" dur="3.033s" begin="0s" calcMode="spline" values="249.673 107.936; 249.673 107.936; 249.673 109.992; 249.673 115.234; 249.673 122.733; 249.673 131.922; 249.673 142.416; 249.673 153.903; 249.673 166.125; 249.673 191.497; 249.673 202.936; 249.673 197.942; 249.673 194.782; 249.673 193.455; 249.673 193.961; 249.673 196.301; 249.673 200.474; 249.673 201.208; 249.673 199.502; 249.673 199.63; 249.673 201.591; 249.673 201.939; 249.673 201.697; 249.673 202.752; 249.673 202.566; 249.673 202.773; 249.673 202.773" keyTimes="0; 0.285714; 0.296703; 0.307692; 0.318681; 0.32967; 0.340659; 0.351648; 0.362637; 0.384615; 0.395604; 0.406593; 0.417582; 0.428571; 0.43956; 0.450549; 0.461539; 0.472528; 0.483517; 0.494506; 0.505495; 0.516484; 0.527473; 0.538462; 0.549451; 0.56044; 1" keySplines="0 0 1 1; 0 0 1 1; 0 0 1 1; 0 0 1 1; 0 0 1 1; 0 0 1 1; 0 0 1 1; 0 0 1 1; 0 0 1 1; 0 0 1 1; 0 0 1 1; 0 0 1 1; 0 0 1 1; 0 0 1 1; 0 0 1 1; 0 0 1 1; 0 0 1 1; 0 0 1 1; 0 0 1 1; 0 0 1 1; 0 0 1 1; 0 0 1 1; 0 0 1 1; 0 0 1 1; 0 0 1 1; 0 0 1 1" fill="freeze" /><g transform="scale(0,0)"><animateTransform repeatCount="indefinite" type="scale" attributeName="transform" dur="3.033s" begin="0s" calcMode="spline" values="0 0; 0 0; 1 1; 1 1" keyTimes="0; 0.175824; 0.285714; 1" keySplines="0 0 1 1; 0.333 0 0 1; 0 0 1 1" fill="freeze" /><g transform="translate(-249.673,-202.936)"><g id="i1" transform="matrix(1,0,0,1,163.561,163.794)"><path fill="#c9f7b6" d="M-7.828,-7.828C-7.828,-7.828,7.828,-7.828,7.828,-7.828C7.828,0.819,0.819,7.828,-7.828,7.828C-7.828,7.828,-7.828,-7.828,-7.828,-7.828Z" /></g><g id="i2" transform="matrix(1,0,0,1,339.7,163.794)"><path fill="#c9f7b6" d="M7.828,-7.828C7.828,-7.828,-7.828,-7.828,-7.828,-7.828C-7.828,0.819,-0.819,7.828,7.828,7.828C7.828,7.828,7.828,-7.828,7.828,-7.828Z" /></g><g id="i3" transform="matrix(1,0,0,1,163.561,226.421)"><path fill="#c9f7b6" d="M7.828,7.828C7.828,7.828,-7.828,7.828,-7.828,7.828C-7.828,7.828,-7.828,-7.828,-7.828,-7.828C0.819,-7.828,7.828,-0.819,7.828,7.828Z" /></g><g id="i4" transform="matrix(1,0,0,1,202.703,195.107)"><path fill="#7bb57a" d="M-31.314,-39.142C-31.314,-39.142,46.971,-39.142,46.971,-39.142C25.353,-39.142,7.828,-21.618,7.828,0C7.828,21.618,25.353,39.142,46.971,39.142C46.971,39.142,-31.314,39.142,-31.314,39.142C-31.314,30.495,-38.324,23.485,-46.971,23.485C-46.971,23.485,-46.971,-23.485,-46.971,-23.485C-38.324,-23.485,-31.314,-30.495,-31.314,-39.142Z" /></g><g id="i5" transform="matrix(1,0,0,1,298.601,195.107)"><path fill="#7bb57a" d="M48.928,-23.485C48.928,-23.485,48.928,23.485,48.928,23.485C40.281,23.485,33.271,30.495,33.271,39.142C33.271,39.142,-48.928,39.142,-48.928,39.142C-27.31,39.142,-9.786,21.618,-9.786,0C-9.786,-21.618,-27.31,-39.142,-48.928,-39.142C-48.928,-39.142,33.271,-39.142,33.271,-39.142C33.271,-30.495,40.281,-23.485,48.928,-23.485Z" /></g><g id="i6" transform="matrix(1,0,0,1,249.673,195.107)"><path d="M97.855,23.485C97.855,23.485,97.855,-39.142,97.855,-39.142C97.855,-39.142,-93.941,-39.142,-93.941,-39.142C-93.941,-39.142,-93.941,39.142,-93.941,39.142C-93.941,39.142,82.198,39.142,82.198,39.142C82.198,30.495,89.208,23.485,97.855,23.485Z" fill="#c9f7b6" /><rect height="109.598" width="219.196" y="-54.799" x="-109.598" fill="#c9f7b6" /></g><g id="i7" transform="matrix(1,0,0,1,251.63,195.107)"><path fill="#89c585" d="M80.241,43.056C80.241,43.056,-80.241,43.056,-80.241,43.056C-82.403,43.056,-84.156,41.304,-84.156,39.142C-84.156,32.657,-89.413,27.399,-95.898,27.399C-98.06,27.399,-99.812,25.647,-99.812,23.485C-99.812,23.485,-99.812,-23.485,-99.812,-23.485C-99.812,-25.647,-98.06,-27.399,-95.898,-27.399C-89.413,-27.399,-84.156,-32.657,-84.156,-39.142C-84.156,-41.304,-82.403,-43.056,-80.241,-43.056C-80.241,-43.056,80.241,-43.056,80.241,-43.056C82.403,-43.056,84.156,-41.304,84.156,-39.142C84.156,-32.657,89.413,-27.399,95.898,-27.399C98.06,-27.399,99.812,-25.647,99.812,-23.485C99.812,-23.485,99.812,23.485,99.812,23.485C99.812,25.647,98.06,27.399,95.898,27.399C89.413,27.399,84.156,32.657,84.156,39.142C84.156,41.304,82.403,43.056,80.241,43.056ZM-76.719,35.228C-76.719,35.228,76.719,35.228,76.719,35.228C78.299,27.546,84.302,21.542,91.984,19.962C91.984,19.962,91.984,-19.962,91.984,-19.962C84.302,-21.542,78.299,-27.546,76.719,-35.228C76.719,-35.228,-76.719,-35.228,-76.719,-35.228C-78.299,-27.546,-84.302,-21.542,-91.984,-19.962C-91.984,-19.962,-91.984,19.962,-91.984,19.962C-84.302,21.542,-78.299,27.546,-76.719,35.228Z" /></g><g id="i8" transform="matrix(1,0,0,1,249.673,195.107)"><ellipse ry="39.142" rx="39.142" cy="0" cx="0" fill="#c9f7b6" /></g><g id="i9" transform="matrix(1,0,0,1,249.673,195.107)"><path fill="#5b8e63" d="M3.914,-3.914C3.914,-3.914,3.914,-11.743,3.914,-11.743C3.914,-11.743,11.743,-11.743,11.743,-11.743C11.743,-11.743,11.743,-19.571,11.743,-19.571C11.743,-19.571,3.914,-19.571,3.914,-19.571C3.914,-19.571,3.914,-27.399,3.914,-27.399C3.914,-27.399,-3.914,-27.399,-3.914,-27.399C-3.914,-27.399,-3.914,-19.571,-3.914,-19.571C-10.399,-19.571,-15.657,-14.313,-15.657,-7.828C-15.657,-1.343,-10.399,3.914,-3.914,3.914C-3.914,3.914,-3.914,11.743,-3.914,11.743C-3.914,11.743,-11.743,11.743,-11.743,11.743C-11.743,11.743,-11.743,19.571,-11.743,19.571C-11.743,19.571,-3.914,19.571,-3.914,19.571C-3.914,19.571,-3.914,27.399,-3.914,27.399C-3.914,27.399,3.914,27.399,3.914,27.399C3.914,27.399,3.914,19.571,3.914,19.571C10.399,19.571,15.657,14.313,15.657,7.828C15.657,1.343,10.399,-3.914,3.914,-3.914ZM-7.828,-7.828C-7.828,-9.99,-6.076,-11.743,-3.914,-11.743C-3.914,-11.743,-3.914,-3.914,-3.914,-3.914C-6.076,-3.914,-7.828,-5.666,-7.828,-7.828ZM3.914,11.743C3.914,11.743,3.914,3.914,3.914,3.914C6.076,3.914,7.828,5.666,7.828,7.828C7.828,9.99,6.076,11.743,3.914,11.743Z" /></g><g id="i10" transform="matrix(1,0,0,1,183.132,195.107)"><ellipse ry="3.914" rx="3.914" cy="0" cx="0" fill="#c9f7b6" /></g><g id="i11" transform="matrix(1,0,0,1,320.129,195.107)"><ellipse ry="3.914" rx="3.914" cy="0" cx="0" fill="#c9f7b6" /></g><g id="i12" transform="matrix(1,0,0,1,0,0)"><g id="i11" transform="matrix(1,0,0,1,249.673,257.735)"><rect height="15.657" width="219.196" y="-7.829" x="-109.598" fill="#89c585" /></g><g id="i12" transform="matrix(1,0,0,1,249.673,257.735)"><path fill="#5b915a" d="M93.941,-7.828C93.941,-7.828,93.941,-7.828,93.941,-7.828C93.941,-3.504,90.437,0,86.113,0C86.113,0,-109.598,0,-109.598,0C-109.598,0,-109.598,7.828,-109.598,7.828C-109.598,7.828,109.598,7.828,109.598,7.828C109.598,7.828,109.598,-7.828,109.598,-7.828C109.598,-7.828,93.941,-7.828,93.941,-7.828Z" /></g></g></g></g></g></g><g visibility="hidden" id="i16"><animate repeatCount="indefinite" begin="0s" calcMode="discrete" dur="3.033s" values="hidden; visible; visible; visible" keyTimes="0; 0.197978; 0.99989; 1" attributeName="visibility" /><g transform="translate(249.673,92.279)"><animateTransform repeatCount="indefinite" type="translate" attributeName="transform" dur="3.033s" begin="0s" calcMode="spline" values="249.673 92.279; 249.673 92.279; 249.673 94.335; 249.673 99.579; 249.673 107.076; 249.673 116.265; 249.673 126.77; 249.673 138.262; 249.673 150.482; 249.673 175.84; 249.673 187.279; 249.673 182.285; 249.673 179.125; 249.673 177.798; 249.673 178.304; 249.673 180.644; 249.673 184.817; 249.673 185.551; 249.673 183.845; 249.673 183.973; 249.673 185.934; 249.673 186.283; 249.673 186.04; 249.673 187.095; 249.673 186.909; 249.673 187.116; 249.673 187.116" keyTimes="0; 0.307692; 0.318681; 0.32967; 0.340659; 0.351648; 0.362637; 0.373626; 0.384615; 0.406593; 0.417582; 0.428571; 0.43956; 0.450549; 0.461538; 0.472527; 0.483516; 0.494505; 0.505494; 0.516483; 0.527472; 0.538461; 0.54945; 0.560439; 0.571428; 0.582417; 1" keySplines="0 0 1 1; 0 0 1 1; 0 0 1 1; 0 0 1 1; 0 0 1 1; 0 0 1 1; 0 0 1 1; 0 0 1 1; 0 0 1 1; 0 0 1 1; 0 0 1 1; 0 0 1 1; 0 0 1 1; 0 0 1 1; 0 0 1 1; 0 0 1 1; 0 0 1 1; 0 0 1 1; 0 0 1 1; 0 0 1 1; 0 0 1 1; 0 0 1 1; 0 0 1 1; 0 0 1 1; 0 0 1 1; 0 0 1 1" fill="freeze" /><g transform="scale(0,0)"><animateTransform repeatCount="indefinite" type="scale" attributeName="transform" dur="3.033s" begin="0s" calcMode="spline" values="0 0; 0 0; 1 1; 1 1" keyTimes="0; 0.197802; 0.307692; 1" keySplines="0 0 1 1; 0.333 0 0 1; 0 0 1 1" fill="freeze" /><g transform="translate(-249.673,-187.279)"><g id="i1" transform="matrix(1,0,0,1,163.561,148.137)"><path fill="#c9f7b6" d="M-7.828,-7.828C-7.828,-7.828,7.828,-7.828,7.828,-7.828C7.828,0.819,0.819,7.828,-7.828,7.828C-7.828,7.828,-7.828,-7.828,-7.828,-7.828Z" /></g><g id="i2" transform="matrix(1,0,0,1,339.7,148.137)"><path fill="#c9f7b6" d="M7.828,-7.828C7.828,-7.828,-7.828,-7.828,-7.828,-7.828C-7.828,0.819,-0.819,7.828,7.828,7.828C7.828,7.828,7.828,-7.828,7.828,-7.828Z" /></g><g id="i3" transform="matrix(1,0,0,1,163.561,210.764)"><path fill="#c9f7b6" d="M7.828,7.828C7.828,7.828,-7.828,7.828,-7.828,7.828C-7.828,7.828,-7.828,-7.828,-7.828,-7.828C0.819,-7.828,7.828,-0.819,7.828,7.828Z" /></g><g id="i4" transform="matrix(1,0,0,1,202.703,179.451)"><path fill="#7bb57a" d="M-31.314,-39.142C-31.314,-39.142,46.971,-39.142,46.971,-39.142C25.353,-39.142,7.828,-21.618,7.828,0C7.828,21.618,25.353,39.142,46.971,39.142C46.971,39.142,-31.314,39.142,-31.314,39.142C-31.314,30.495,-38.324,23.485,-46.971,23.485C-46.971,23.485,-46.971,-23.485,-46.971,-23.485C-38.324,-23.485,-31.314,-30.495,-31.314,-39.142Z" /></g><g id="i5" transform="matrix(1,0,0,1,298.601,179.451)"><path fill="#7bb57a" d="M48.928,-23.485C48.928,-23.485,48.928,23.485,48.928,23.485C40.281,23.485,33.271,30.495,33.271,39.142C33.271,39.142,-48.928,39.142,-48.928,39.142C-27.31,39.142,-9.786,21.618,-9.786,0C-9.786,-21.618,-27.31,-39.142,-48.928,-39.142C-48.928,-39.142,33.271,-39.142,33.271,-39.142C33.271,-30.495,40.281,-23.485,48.928,-23.485Z" /></g><g id="i6" transform="matrix(1,0,0,1,249.673,179.451)"><path d="M97.855,23.485C97.855,23.485,97.855,-39.142,97.855,-39.142C97.855,-39.142,-93.941,-39.142,-93.941,-39.142C-93.941,-39.142,-93.941,39.142,-93.941,39.142C-93.941,39.142,82.198,39.142,82.198,39.142C82.198,30.495,89.208,23.485,97.855,23.485Z" fill="#c9f7b6" /><rect height="109.598" width="219.196" y="-54.799" x="-109.598" fill="#c9f7b6" /></g><g id="i7" transform="matrix(1,0,0,1,251.63,179.451)"><path fill="#89c585" d="M80.241,43.056C80.241,43.056,-80.241,43.056,-80.241,43.056C-82.403,43.056,-84.156,41.304,-84.156,39.142C-84.156,32.657,-89.413,27.399,-95.898,27.399C-98.06,27.399,-99.812,25.647,-99.812,23.485C-99.812,23.485,-99.812,-23.485,-99.812,-23.485C-99.812,-25.647,-98.06,-27.399,-95.898,-27.399C-89.413,-27.399,-84.156,-32.657,-84.156,-39.142C-84.156,-41.304,-82.403,-43.056,-80.241,-43.056C-80.241,-43.056,80.241,-43.056,80.241,-43.056C82.403,-43.056,84.156,-41.304,84.156,-39.142C84.156,-32.657,89.413,-27.399,95.898,-27.399C98.06,-27.399,99.812,-25.647,99.812,-23.485C99.812,-23.485,99.812,23.485,99.812,23.485C99.812,25.647,98.06,27.399,95.898,27.399C89.413,27.399,84.156,32.657,84.156,39.142C84.156,41.304,82.403,43.056,80.241,43.056ZM-76.719,35.228C-76.719,35.228,76.719,35.228,76.719,35.228C78.299,27.546,84.302,21.542,91.984,19.962C91.984,19.962,91.984,-19.962,91.984,-19.962C84.302,-21.542,78.299,-27.546,76.719,-35.228C76.719,-35.228,-76.719,-35.228,-76.719,-35.228C-78.299,-27.546,-84.302,-21.542,-91.984,-19.962C-91.984,-19.962,-91.984,19.962,-91.984,19.962C-84.302,21.542,-78.299,27.546,-76.719,35.228Z" /></g><g id="i8" transform="matrix(1,0,0,1,249.673,179.451)"><ellipse ry="39.142" rx="39.142" cy="0" cx="0" fill="#c9f7b6" /></g><g id="i9" transform="matrix(1,0,0,1,249.673,179.451)"><path fill="#5b8e63" d="M3.914,-3.914C3.914,-3.914,3.914,-11.743,3.914,-11.743C3.914,-11.743,11.743,-11.743,11.743,-11.743C11.743,-11.743,11.743,-19.571,11.743,-19.571C11.743,-19.571,3.914,-19.571,3.914,-19.571C3.914,-19.571,3.914,-27.399,3.914,-27.399C3.914,-27.399,-3.914,-27.399,-3.914,-27.399C-3.914,-27.399,-3.914,-19.571,-3.914,-19.571C-10.399,-19.571,-15.657,-14.313,-15.657,-7.828C-15.657,-1.343,-10.399,3.914,-3.914,3.914C-3.914,3.914,-3.914,11.743,-3.914,11.743C-3.914,11.743,-11.743,11.743,-11.743,11.743C-11.743,11.743,-11.743,19.571,-11.743,19.571C-11.743,19.571,-3.914,19.571,-3.914,19.571C-3.914,19.571,-3.914,27.399,-3.914,27.399C-3.914,27.399,3.914,27.399,3.914,27.399C3.914,27.399,3.914,19.571,3.914,19.571C10.399,19.571,15.657,14.313,15.657,7.828C15.657,1.343,10.399,-3.914,3.914,-3.914ZM-7.828,-7.828C-7.828,-9.99,-6.076,-11.743,-3.914,-11.743C-3.914,-11.743,-3.914,-3.914,-3.914,-3.914C-6.076,-3.914,-7.828,-5.666,-7.828,-7.828ZM3.914,11.743C3.914,11.743,3.914,3.914,3.914,3.914C6.076,3.914,7.828,5.666,7.828,7.828C7.828,9.99,6.076,11.743,3.914,11.743Z" /></g><g id="i10" transform="matrix(1,0,0,1,183.132,179.451)"><ellipse ry="3.914" rx="3.914" cy="0" cx="0" fill="#c9f7b6" /></g><g id="i11" transform="matrix(1,0,0,1,320.129,179.451)"><ellipse ry="3.914" rx="3.914" cy="0" cx="0" fill="#c9f7b6" /></g><g id="i12" transform="matrix(1,0,0,1,0,0)"><g id="i11" transform="matrix(1,0,0,1,249.673,242.078)"><rect height="15.657" width="219.196" y="-7.829" x="-109.598" fill="#89c585" /></g><g id="i12" transform="matrix(1,0,0,1,249.673,242.078)"><path fill="#5b915a" d="M93.941,-7.828C93.941,-7.828,93.941,-7.828,93.941,-7.828C93.941,-3.504,90.437,0,86.113,0C86.113,0,-109.598,0,-109.598,0C-109.598,0,-109.598,7.828,-109.598,7.828C-109.598,7.828,109.598,7.828,109.598,7.828C109.598,7.828,109.598,-7.828,109.598,-7.828C109.598,-7.828,93.941,-7.828,93.941,-7.828Z" /></g></g></g></g></g></g><g visibility="hidden" id="i17"><animate repeatCount="indefinite" begin="0s" calcMode="discrete" dur="3.033s" values="hidden; visible; visible; visible" keyTimes="0; 0.219976; 0.99989; 1" attributeName="visibility" /><g transform="translate(249.673,76.622)"><animateTransform repeatCount="indefinite" type="translate" attributeName="transform" dur="3.033s" begin="0s" calcMode="spline" values="249.673 76.622; 249.673 76.622; 249.673 78.678; 249.673 83.922; 249.673 91.419; 249.673 100.608; 249.673 111.113; 249.673 122.605; 249.673 134.825; 249.673 160.183; 249.673 171.622; 249.673 166.628; 249.673 163.468; 249.673 162.141; 249.673 162.647; 249.673 164.987; 249.673 169.16; 249.673 169.894; 249.673 168.189; 249.673 168.316; 249.673 170.277; 249.673 170.626; 249.673 170.383; 249.673 171.438; 249.673 171.252; 249.673 171.459; 249.673 171.459" keyTimes="0; 0.32967; 0.340659; 0.351648; 0.362637; 0.373626; 0.384615; 0.395604; 0.406593; 0.428571; 0.43956; 0.450549; 0.461538; 0.472527; 0.483516; 0.494505; 0.505494; 0.516483; 0.527472; 0.538461; 0.54945; 0.560439; 0.571428; 0.582417; 0.593406; 0.604395; 1" keySplines="0 0 1 1; 0 0 1 1; 0 0 1 1; 0 0 1 1; 0 0 1 1; 0 0 1 1; 0 0 1 1; 0 0 1 1; 0 0 1 1; 0 0 1 1; 0 0 1 1; 0 0 1 1; 0 0 1 1; 0 0 1 1; 0 0 1 1; 0 0 1 1; 0 0 1 1; 0 0 1 1; 0 0 1 1; 0 0 1 1; 0 0 1 1; 0 0 1 1; 0 0 1 1; 0 0 1 1; 0 0 1 1; 0 0 1 1" fill="freeze" /><g transform="scale(0,0)"><animateTransform repeatCount="indefinite" type="scale" attributeName="transform" dur="3.033s" begin="0s" calcMode="spline" values="0 0; 0 0; 1 1; 1 1" keyTimes="0; 0.21978; 0.32967; 1" keySplines="0 0 1 1; 0.333 0 0 1; 0 0 1 1" fill="freeze" /><g transform="translate(-249.673,-171.622)"><g id="i1" transform="matrix(1,0,0,1,163.561,132.48)"><path fill="#c9f7b6" d="M-7.828,-7.828C-7.828,-7.828,7.828,-7.828,7.828,-7.828C7.828,0.819,0.819,7.828,-7.828,7.828C-7.828,7.828,-7.828,-7.828,-7.828,-7.828Z" /></g><g id="i2" transform="matrix(1,0,0,1,339.7,132.48)"><path fill="#c9f7b6" d="M7.828,-7.828C7.828,-7.828,-7.828,-7.828,-7.828,-7.828C-7.828,0.819,-0.819,7.828,7.828,7.828C7.828,7.828,7.828,-7.828,7.828,-7.828Z" /></g><g id="i3" transform="matrix(1,0,0,1,163.561,195.107)"><path fill="#c9f7b6" d="M7.828,7.828C7.828,7.828,-7.828,7.828,-7.828,7.828C-7.828,7.828,-7.828,-7.828,-7.828,-7.828C0.819,-7.828,7.828,-0.819,7.828,7.828Z" /></g><g id="i4" transform="matrix(1,0,0,1,202.703,163.794)"><path fill="#7bb57a" d="M-31.314,-39.142C-31.314,-39.142,46.971,-39.142,46.971,-39.142C25.353,-39.142,7.828,-21.618,7.828,0C7.828,21.618,25.353,39.142,46.971,39.142C46.971,39.142,-31.314,39.142,-31.314,39.142C-31.314,30.495,-38.324,23.485,-46.971,23.485C-46.971,23.485,-46.971,-23.485,-46.971,-23.485C-38.324,-23.485,-31.314,-30.495,-31.314,-39.142Z" /></g><g id="i5" transform="matrix(1,0,0,1,298.601,163.794)"><path fill="#7bb57a" d="M48.928,-23.485C48.928,-23.485,48.928,23.485,48.928,23.485C40.281,23.485,33.271,30.495,33.271,39.142C33.271,39.142,-48.928,39.142,-48.928,39.142C-27.31,39.142,-9.786,21.618,-9.786,0C-9.786,-21.618,-27.31,-39.142,-48.928,-39.142C-48.928,-39.142,33.271,-39.142,33.271,-39.142C33.271,-30.495,40.281,-23.485,48.928,-23.485Z" /></g><g id="i6" transform="matrix(1,0,0,1,249.673,163.794)"><path d="M97.855,23.485C97.855,23.485,97.855,-39.142,97.855,-39.142C97.855,-39.142,-93.941,-39.142,-93.941,-39.142C-93.941,-39.142,-93.941,39.142,-93.941,39.142C-93.941,39.142,82.198,39.142,82.198,39.142C82.198,30.495,89.208,23.485,97.855,23.485Z" fill="#c9f7b6" /><rect height="109.598" width="219.196" y="-54.799" x="-109.598" fill="#c9f7b6" /></g><g id="i7" transform="matrix(1,0,0,1,251.63,163.794)"><path fill="#89c585" d="M80.241,43.056C80.241,43.056,-80.241,43.056,-80.241,43.056C-82.403,43.056,-84.156,41.304,-84.156,39.142C-84.156,32.657,-89.413,27.399,-95.898,27.399C-98.06,27.399,-99.812,25.647,-99.812,23.485C-99.812,23.485,-99.812,-23.485,-99.812,-23.485C-99.812,-25.647,-98.06,-27.399,-95.898,-27.399C-89.413,-27.399,-84.156,-32.657,-84.156,-39.142C-84.156,-41.304,-82.403,-43.056,-80.241,-43.056C-80.241,-43.056,80.241,-43.056,80.241,-43.056C82.403,-43.056,84.156,-41.304,84.156,-39.142C84.156,-32.657,89.413,-27.399,95.898,-27.399C98.06,-27.399,99.812,-25.647,99.812,-23.485C99.812,-23.485,99.812,23.485,99.812,23.485C99.812,25.647,98.06,27.399,95.898,27.399C89.413,27.399,84.156,32.657,84.156,39.142C84.156,41.304,82.403,43.056,80.241,43.056ZM-76.719,35.228C-76.719,35.228,76.719,35.228,76.719,35.228C78.299,27.546,84.302,21.542,91.984,19.962C91.984,19.962,91.984,-19.962,91.984,-19.962C84.302,-21.542,78.299,-27.546,76.719,-35.228C76.719,-35.228,-76.719,-35.228,-76.719,-35.228C-78.299,-27.546,-84.302,-21.542,-91.984,-19.962C-91.984,-19.962,-91.984,19.962,-91.984,19.962C-84.302,21.542,-78.299,27.546,-76.719,35.228Z" /></g><g id="i8" transform="matrix(1,0,0,1,249.673,163.794)"><ellipse ry="39.142" rx="39.142" cy="0" cx="0" fill="#c9f7b6" /></g><g id="i9" transform="matrix(1,0,0,1,249.673,163.794)"><path fill="#5b8e63" d="M3.914,-3.914C3.914,-3.914,3.914,-11.743,3.914,-11.743C3.914,-11.743,11.743,-11.743,11.743,-11.743C11.743,-11.743,11.743,-19.571,11.743,-19.571C11.743,-19.571,3.914,-19.571,3.914,-19.571C3.914,-19.571,3.914,-27.399,3.914,-27.399C3.914,-27.399,-3.914,-27.399,-3.914,-27.399C-3.914,-27.399,-3.914,-19.571,-3.914,-19.571C-10.399,-19.571,-15.657,-14.313,-15.657,-7.828C-15.657,-1.343,-10.399,3.914,-3.914,3.914C-3.914,3.914,-3.914,11.743,-3.914,11.743C-3.914,11.743,-11.743,11.743,-11.743,11.743C-11.743,11.743,-11.743,19.571,-11.743,19.571C-11.743,19.571,-3.914,19.571,-3.914,19.571C-3.914,19.571,-3.914,27.399,-3.914,27.399C-3.914,27.399,3.914,27.399,3.914,27.399C3.914,27.399,3.914,19.571,3.914,19.571C10.399,19.571,15.657,14.313,15.657,7.828C15.657,1.343,10.399,-3.914,3.914,-3.914ZM-7.828,-7.828C-7.828,-9.99,-6.076,-11.743,-3.914,-11.743C-3.914,-11.743,-3.914,-3.914,-3.914,-3.914C-6.076,-3.914,-7.828,-5.666,-7.828,-7.828ZM3.914,11.743C3.914,11.743,3.914,3.914,3.914,3.914C6.076,3.914,7.828,5.666,7.828,7.828C7.828,9.99,6.076,11.743,3.914,11.743Z" /></g><g id="i10" transform="matrix(1,0,0,1,183.132,163.794)"><ellipse ry="3.914" rx="3.914" cy="0" cx="0" fill="#c9f7b6" /></g><g id="i11" transform="matrix(1,0,0,1,320.129,163.794)"><ellipse ry="3.914" rx="3.914" cy="0" cx="0" fill="#c9f7b6" /></g><g id="i12" transform="matrix(1,0,0,1,0,0)"><g id="i11" transform="matrix(1,0,0,1,249.673,226.421)"><rect height="15.657" width="219.196" y="-7.829" x="-109.598" fill="#89c585" /></g><g id="i12" transform="matrix(1,0,0,1,249.673,226.421)"><path fill="#5b915a" d="M93.941,-7.828C93.941,-7.828,93.941,-7.828,93.941,-7.828C93.941,-3.504,90.437,0,86.113,0C86.113,0,-109.598,0,-109.598,0C-109.598,0,-109.598,7.828,-109.598,7.828C-109.598,7.828,109.598,7.828,109.598,7.828C109.598,7.828,109.598,-7.828,109.598,-7.828C109.598,-7.828,93.941,-7.828,93.941,-7.828Z" /></g></g></g></g></g></g><g visibility="hidden" id="i18"><animate repeatCount="indefinite" begin="0s" calcMode="discrete" dur="3.033s" values="hidden; visible; visible; visible" keyTimes="0; 0.109988; 0.99989; 1" attributeName="visibility" /><g transform="translate(143.989,256.693)"><animateTransform repeatCount="indefinite" type="translate" attributeName="transform" dur="3.033s" begin="0s" calcMode="spline" values="143.989 256.693; 143.989 256.693; 143.989 258.749; 143.989 263.993; 143.989 271.49; 143.989 280.679; 143.989 291.184; 143.989 302.676; 143.989 314.896; 143.989 340.254; 143.989 351.693; 143.989 346.699; 143.989 343.539; 143.989 342.212; 143.989 342.718; 143.989 345.058; 143.989 349.231; 143.989 349.965; 143.989 348.26; 143.989 348.387; 143.989 350.348; 143.989 350.454; 143.989 351.509; 143.989 351.509" keyTimes="0; 0.21978; 0.230769; 0.241758; 0.252747; 0.263736; 0.274725; 0.285715; 0.296703; 0.318681; 0.329671; 0.34066; 0.351648; 0.362637; 0.373627; 0.384616; 0.395605; 0.406593; 0.417583; 0.428572; 0.439561; 0.461539; 0.472528; 1" keySplines="0 0 1 1; 0 0 1 1; 0 0 1 1; 0 0 1 1; 0 0 1 1; 0 0 1 1; 0 0 1 1; 0 0 1 1; 0 0 1 1; 0 0 1 1; 0 0 1 1; 0 0 1 1; 0 0 1 1; 0 0 1 1; 0 0 1 1; 0 0 1 1; 0 0 1 1; 0 0 1 1; 0 0 1 1; 0 0 1 1; 0 0 1 1; 0 0 1 1; 0 0 1 1" fill="freeze" /><g transform="scale(0,0)"><animateTransform repeatCount="indefinite" type="scale" attributeName="transform" dur="3.033s" begin="0s" calcMode="spline" values="0 0; 0 0; 1 1; 1 1" keyTimes="0; 0.10989; 0.21978; 1" keySplines="0 0 1 1; 0 0 1 1; 0 0 1 1" fill="freeze" /><g transform="translate(-143.989,-351.693)"><g id="i8" transform="matrix(1,0,0,1,143.989,343.861)"><ellipse ry="11.742" rx="27.399" cy="0" cx="0" fill="#ffdf75" /></g><g id="i9" transform="matrix(1,0,0,1,143.989,343.861)"><path fill="#ffc052" d="M43.056,0C43.056,12.956,23.798,23.485,0,23.485C-23.798,23.485,-43.056,12.956,-43.056,0C-43.056,-12.956,-23.798,-23.485,0,-23.485C5.743,-23.495,11.469,-22.852,17.066,-21.567C32.371,-17.966,43.056,-9.668,43.056,0ZM27.399,0C27.399,-6.498,15.148,-11.743,0,-11.743C-15.148,-11.743,-27.399,-6.498,-27.399,0C-27.399,6.498,-15.148,11.743,0,11.743C15.148,11.743,27.399,6.498,27.399,0Z" /></g><g id="i10" transform="matrix(1,0,0,1,143.989,363.432)"><path fill="#f09413" d="M-43.056,-3.914C-43.056,-3.914,-43.056,-19.571,-43.056,-19.571C-43.056,-6.615,-23.798,3.914,0,3.914C23.798,3.914,43.056,-6.615,43.056,-19.571C43.056,-19.571,43.056,-3.914,43.056,-3.914C43.056,9.042,23.798,19.571,0,19.571C-23.798,19.571,-43.056,9.042,-43.056,-3.914Z" /></g><g id="i11" transform="matrix(1,0,0,1,143.989,338.968)"><path fill="#c97c10" d="M27.399,4.893C27.405,5.565,27.273,6.232,27.008,6.85C24.855,1.292,13.582,-2.936,0,-2.936C-13.582,-2.936,-24.855,1.292,-27.008,6.85C-27.273,6.232,-27.405,5.565,-27.399,4.893C-27.399,-1.605,-15.148,-6.85,0,-6.85C15.148,-6.85,27.399,-1.605,27.399,4.893Z" /></g><g id="i12" transform="matrix(1,0,0,1,143.989,363.436)"><path fill="#de8800" d="M43.056,-11.746C43.056,-11.746,43.056,-3.918,43.056,-3.918C43.056,9.038,23.798,19.567,0,19.567C-9.407,19.707,-18.739,17.881,-27.399,14.205C-36.95,9.899,-43.056,3.362,-43.056,-3.918C-43.056,-3.918,-43.056,-19.575,-43.056,-19.575C-43.056,-12.295,-36.95,-5.758,-27.399,-1.452C-27.399,-1.452,-27.399,-1.452,-27.399,-1.452C-27.424,3.523,-24.125,7.903,-19.336,9.253C-13.029,10.935,-6.527,11.771,0,11.739C23.798,11.739,43.056,1.21,43.056,-11.746Z" /></g></g></g></g></g><g visibility="hidden" id="i19"><animate repeatCount="indefinite" begin="0s" calcMode="discrete" dur="3.033s" values="hidden; visible; visible; visible" keyTimes="0; 0.131985; 0.99989; 1" attributeName="visibility" /><g transform="translate(143.989,241.033)"><animateTransform repeatCount="indefinite" type="translate" attributeName="transform" dur="3.033s" begin="0s" calcMode="spline" values="143.989 241.033; 143.989 241.033; 143.989 243.089; 143.989 248.332; 143.989 255.83; 143.989 265.019; 143.989 275.524; 143.989 287.016; 143.989 299.236; 143.989 324.594; 143.989 336.033; 143.989 331.039; 143.989 327.879; 143.989 326.552; 143.989 327.058; 143.989 329.398; 143.989 333.571; 143.989 334.305; 143.989 332.599; 143.989 332.727; 143.989 334.688; 143.989 334.794; 143.989 335.849; 143.989 335.849" keyTimes="0; 0.241758; 0.252747; 0.263736; 0.274725; 0.285714; 0.296703; 0.307692; 0.318681; 0.340659; 0.351648; 0.362637; 0.373626; 0.384615; 0.395604; 0.406593; 0.417582; 0.428571; 0.43956; 0.450549; 0.461538; 0.483517; 0.494505; 1" keySplines="0 0 1 1; 0 0 1 1; 0 0 1 1; 0 0 1 1; 0 0 1 1; 0 0 1 1; 0 0 1 1; 0 0 1 1; 0 0 1 1; 0 0 1 1; 0 0 1 1; 0 0 1 1; 0 0 1 1; 0 0 1 1; 0 0 1 1; 0 0 1 1; 0 0 1 1; 0 0 1 1; 0 0 1 1; 0 0 1 1; 0 0 1 1; 0 0 1 1; 0 0 1 1" fill="freeze" /><g transform="scale(0,0)"><animateTransform repeatCount="indefinite" type="scale" attributeName="transform" dur="3.033s" begin="0s" calcMode="spline" values="0 0; 0 0; 1 1; 1 1" keyTimes="0; 0.131868; 0.241758; 1" keySplines="0 0 1 1; 0 0 1 1; 0 0 1 1" fill="freeze" /><g transform="translate(-143.989,-336.033)"><g id="i8" transform="matrix(1,0,0,1,143.989,328.2)"><ellipse ry="11.742" rx="27.399" cy="0" cx="0" fill="#ffdf75" /></g><g id="i9" transform="matrix(1,0,0,1,143.989,328.2)"><path fill="#ffc052" d="M43.056,0C43.056,12.956,23.798,23.485,0,23.485C-23.798,23.485,-43.056,12.956,-43.056,0C-43.056,-12.956,-23.798,-23.485,0,-23.485C5.743,-23.495,11.469,-22.852,17.066,-21.567C32.371,-17.966,43.056,-9.668,43.056,0ZM27.399,0C27.399,-6.498,15.148,-11.743,0,-11.743C-15.148,-11.743,-27.399,-6.498,-27.399,0C-27.399,6.498,-15.148,11.743,0,11.743C15.148,11.743,27.399,6.498,27.399,0Z" /></g><g id="i10" transform="matrix(1,0,0,1,143.989,347.771)"><path fill="#ffcb52" d="M-43.056,-3.914C-43.056,-3.914,-43.056,-19.571,-43.056,-19.571C-43.056,-6.615,-23.798,3.914,0,3.914C23.798,3.914,43.056,-6.615,43.056,-19.571C43.056,-19.571,43.056,-3.914,43.056,-3.914C43.056,9.042,23.798,19.571,0,19.571C-23.798,19.571,-43.056,9.042,-43.056,-3.914Z" /></g><g id="i11" transform="matrix(1,0,0,1,143.989,323.308)"><path fill="#c97c10" d="M27.399,4.893C27.405,5.565,27.273,6.232,27.008,6.85C24.855,1.292,13.582,-2.936,0,-2.936C-13.582,-2.936,-24.855,1.292,-27.008,6.85C-27.273,6.232,-27.405,5.565,-27.399,4.893C-27.399,-1.605,-15.148,-6.85,0,-6.85C15.148,-6.85,27.399,-1.605,27.399,4.893Z" /></g><g id="i12" transform="matrix(1,0,0,1,143.989,347.775)"><path fill="#de8800" d="M43.056,-11.746C43.056,-11.746,43.056,-3.918,43.056,-3.918C43.056,9.038,23.798,19.567,0,19.567C-9.407,19.707,-18.739,17.881,-27.399,14.205C-36.95,9.899,-43.056,3.362,-43.056,-3.918C-43.056,-3.918,-43.056,-19.575,-43.056,-19.575C-43.056,-12.295,-36.95,-5.758,-27.399,-1.452C-27.399,-1.452,-27.399,-1.452,-27.399,-1.452C-27.424,3.523,-24.125,7.903,-19.336,9.253C-13.029,10.935,-6.527,11.771,0,11.739C23.798,11.739,43.056,1.21,43.056,-11.746Z" /></g></g></g></g></g><g visibility="hidden" id="i20"><animate repeatCount="indefinite" begin="0s" calcMode="discrete" dur="3.033s" values="hidden; visible; visible; visible" keyTimes="0; 0.153983; 0.99989; 1" attributeName="visibility" /><g transform="translate(143.989,225.376)"><animateTransform repeatCount="indefinite" type="translate" attributeName="transform" dur="3.033s" begin="0s" calcMode="spline" values="143.989 225.376; 143.989 225.376; 143.989 227.432; 143.989 232.675; 143.989 240.173; 143.989 249.362; 143.989 259.867; 143.989 271.359; 143.989 283.579; 143.989 308.937; 143.989 320.376; 143.989 315.382; 143.989 312.222; 143.989 310.895; 143.989 311.401; 143.989 313.741; 143.989 317.914; 143.989 318.648; 143.989 316.942; 143.989 317.07; 143.989 319.031; 143.989 319.137; 143.989 320.192; 143.989 320.192" keyTimes="0; 0.263736; 0.274725; 0.285714; 0.296703; 0.307692; 0.318681; 0.32967; 0.340659; 0.362637; 0.373627; 0.384615; 0.395604; 0.406593; 0.417583; 0.428572; 0.43956; 0.450549; 0.461539; 0.472528; 0.483517; 0.505495; 0.516484; 1" keySplines="0 0 1 1; 0 0 1 1; 0 0 1 1; 0 0 1 1; 0 0 1 1; 0 0 1 1; 0 0 1 1; 0 0 1 1; 0 0 1 1; 0 0 1 1; 0 0 1 1; 0 0 1 1; 0 0 1 1; 0 0 1 1; 0 0 1 1; 0 0 1 1; 0 0 1 1; 0 0 1 1; 0 0 1 1; 0 0 1 1; 0 0 1 1; 0 0 1 1; 0 0 1 1" fill="freeze" /><g transform="scale(0,0)"><animateTransform repeatCount="indefinite" type="scale" attributeName="transform" dur="3.033s" begin="0s" calcMode="spline" values="0 0; 0 0; 1 1; 1 1" keyTimes="0; 0.153846; 0.263736; 1" keySplines="0 0 1 1; 0 0 1 1; 0 0 1 1" fill="freeze" /><g transform="translate(-143.989,-320.376)"><g id="i8" transform="matrix(1,0,0,1,143.989,312.543)"><ellipse ry="11.742" rx="27.399" cy="0" cx="0" fill="#ffdf75" /></g><g id="i9" transform="matrix(1,0,0,1,143.989,312.543)"><path fill="#ffc052" d="M43.056,0C43.056,12.956,23.798,23.485,0,23.485C-23.798,23.485,-43.056,12.956,-43.056,0C-43.056,-12.956,-23.798,-23.485,0,-23.485C5.743,-23.495,11.469,-22.852,17.066,-21.567C32.371,-17.966,43.056,-9.668,43.056,0ZM27.399,0C27.399,-6.498,15.148,-11.743,0,-11.743C-15.148,-11.743,-27.399,-6.498,-27.399,0C-27.399,6.498,-15.148,11.743,0,11.743C15.148,11.743,27.399,6.498,27.399,0Z" /></g><g id="i10" transform="matrix(1,0,0,1,143.989,332.115)"><path fill="#f09413" d="M-43.056,-3.914C-43.056,-3.914,-43.056,-19.571,-43.056,-19.571C-43.056,-6.615,-23.798,3.914,0,3.914C23.798,3.914,43.056,-6.615,43.056,-19.571C43.056,-19.571,43.056,-3.914,43.056,-3.914C43.056,9.042,23.798,19.571,0,19.571C-23.798,19.571,-43.056,9.042,-43.056,-3.914Z" /></g><g id="i11" transform="matrix(1,0,0,1,143.989,307.651)"><path fill="#c97c10" d="M27.399,4.893C27.405,5.565,27.273,6.232,27.008,6.85C24.855,1.292,13.582,-2.936,0,-2.936C-13.582,-2.936,-24.855,1.292,-27.008,6.85C-27.273,6.232,-27.405,5.565,-27.399,4.893C-27.399,-1.605,-15.148,-6.85,0,-6.85C15.148,-6.85,27.399,-1.605,27.399,4.893Z" /></g><g id="i12" transform="matrix(1,0,0,1,143.989,332.118)"><path fill="#de8800" d="M43.056,-11.746C43.056,-11.746,43.056,-3.918,43.056,-3.918C43.056,9.038,23.798,19.567,0,19.567C-9.407,19.707,-18.739,17.881,-27.399,14.205C-36.95,9.899,-43.056,3.362,-43.056,-3.918C-43.056,-3.918,-43.056,-19.575,-43.056,-19.575C-43.056,-12.295,-36.95,-5.758,-27.399,-1.452C-27.399,-1.452,-27.399,-1.452,-27.399,-1.452C-27.424,3.523,-24.125,7.903,-19.336,9.253C-13.029,10.935,-6.527,11.771,0,11.739C23.798,11.739,43.056,1.21,43.056,-11.746Z" /></g></g></g></g></g><g visibility="hidden" id="i21"><animate repeatCount="indefinite" begin="0s" calcMode="discrete" dur="3.033s" values="hidden; visible; visible; visible" keyTimes="0; 0.109988; 0.99989; 1" attributeName="visibility" /><g transform="translate(243.802,256.693)"><animateTransform repeatCount="indefinite" type="translate" attributeName="transform" dur="3.033s" begin="0s" calcMode="spline" values="243.802 256.693; 243.802 256.693; 243.802 258.749; 243.802 263.993; 243.802 271.49; 243.802 280.679; 243.802 291.184; 243.802 302.676; 243.802 314.896; 243.802 340.254; 243.802 351.693; 243.802 346.699; 243.802 343.539; 243.802 342.212; 243.802 342.718; 243.802 345.058; 243.802 349.231; 243.802 349.965; 243.802 348.26; 243.802 348.387; 243.802 350.348; 243.802 350.454; 243.802 351.509; 243.802 351.509" keyTimes="0; 0.21978; 0.230769; 0.241758; 0.252747; 0.263736; 0.274725; 0.285715; 0.296703; 0.318681; 0.329671; 0.34066; 0.351648; 0.362637; 0.373627; 0.384616; 0.395605; 0.406593; 0.417583; 0.428572; 0.439561; 0.461539; 0.472528; 1" keySplines="0 0 1 1; 0 0 1 1; 0 0 1 1; 0 0 1 1; 0 0 1 1; 0 0 1 1; 0 0 1 1; 0 0 1 1; 0 0 1 1; 0 0 1 1; 0 0 1 1; 0 0 1 1; 0 0 1 1; 0 0 1 1; 0 0 1 1; 0 0 1 1; 0 0 1 1; 0 0 1 1; 0 0 1 1; 0 0 1 1; 0 0 1 1; 0 0 1 1; 0 0 1 1" fill="freeze" /><g transform="scale(0,0)"><animateTransform repeatCount="indefinite" type="scale" attributeName="transform" dur="3.033s" begin="0s" calcMode="spline" values="0 0; 0 0; 1 1; 1 1" keyTimes="0; 0.10989; 0.21978; 1" keySplines="0 0 1 1; 0 0 1 1; 0 0 1 1" fill="freeze" /><g transform="translate(-243.802,-351.693)"><g id="i8" transform="matrix(1,0,0,1,243.802,343.861)"><ellipse ry="11.742" rx="27.399" cy="0" cx="0" fill="#ffdf75" /></g><g id="i9" transform="matrix(1,0,0,1,243.802,343.861)"><path fill="#ffc052" d="M43.056,0C43.056,12.956,23.798,23.485,0,23.485C-23.798,23.485,-43.056,12.956,-43.056,0C-43.056,-12.956,-23.798,-23.485,0,-23.485C5.743,-23.495,11.469,-22.852,17.066,-21.567C32.371,-17.966,43.056,-9.668,43.056,0ZM27.399,0C27.399,-6.498,15.148,-11.743,0,-11.743C-15.148,-11.743,-27.399,-6.498,-27.399,0C-27.399,6.498,-15.148,11.743,0,11.743C15.148,11.743,27.399,6.498,27.399,0Z" /></g><g id="i10" transform="matrix(1,0,0,1,243.802,363.432)"><path fill="#f09413" d="M-43.056,-3.914C-43.056,-3.914,-43.056,-19.571,-43.056,-19.571C-43.056,-6.615,-23.798,3.914,0,3.914C23.798,3.914,43.056,-6.615,43.056,-19.571C43.056,-19.571,43.056,-3.914,43.056,-3.914C43.056,9.042,23.798,19.571,0,19.571C-23.798,19.571,-43.056,9.042,-43.056,-3.914Z" /></g><g id="i11" transform="matrix(1,0,0,1,243.802,338.968)"><path fill="#c97c10" d="M27.399,4.893C27.405,5.565,27.273,6.232,27.008,6.85C24.855,1.292,13.582,-2.936,0,-2.936C-13.582,-2.936,-24.855,1.292,-27.008,6.85C-27.273,6.232,-27.405,5.565,-27.399,4.893C-27.399,-1.605,-15.148,-6.85,0,-6.85C15.148,-6.85,27.399,-1.605,27.399,4.893Z" /></g><g id="i12" transform="matrix(1,0,0,1,243.802,363.436)"><path fill="#de8800" d="M43.056,-11.746C43.056,-11.746,43.056,-3.918,43.056,-3.918C43.056,9.038,23.798,19.567,0,19.567C-9.407,19.707,-18.739,17.881,-27.399,14.205C-36.95,9.899,-43.056,3.362,-43.056,-3.918C-43.056,-3.918,-43.056,-19.575,-43.056,-19.575C-43.056,-12.295,-36.95,-5.758,-27.399,-1.452C-27.399,-1.452,-27.399,-1.452,-27.399,-1.452C-27.424,3.523,-24.125,7.903,-19.336,9.253C-13.029,10.935,-6.527,11.771,0,11.739C23.798,11.739,43.056,1.21,43.056,-11.746Z" /></g></g></g></g></g><g visibility="hidden" id="i22"><animate repeatCount="indefinite" begin="0s" calcMode="discrete" dur="3.033s" values="hidden; visible; visible; visible" keyTimes="0; 0.131985; 0.99989; 1" attributeName="visibility" /><g transform="translate(243.802,241.033)"><animateTransform repeatCount="indefinite" type="translate" attributeName="transform" dur="3.033s" begin="0s" calcMode="spline" values="243.802 241.033; 243.802 241.033; 243.802 243.089; 243.802 248.332; 243.802 255.83; 243.802 265.019; 243.802 275.524; 243.802 287.016; 243.802 299.236; 243.802 324.594; 243.802 336.033; 243.802 331.039; 243.802 327.879; 243.802 326.552; 243.802 327.058; 243.802 329.398; 243.802 333.571; 243.802 334.305; 243.802 332.599; 243.802 332.727; 243.802 334.688; 243.802 334.794; 243.802 335.849; 243.802 335.849" keyTimes="0; 0.241758; 0.252747; 0.263736; 0.274725; 0.285714; 0.296703; 0.307692; 0.318681; 0.340659; 0.351648; 0.362637; 0.373626; 0.384615; 0.395604; 0.406593; 0.417582; 0.428571; 0.43956; 0.450549; 0.461538; 0.483517; 0.494505; 1" keySplines="0 0 1 1; 0 0 1 1; 0 0 1 1; 0 0 1 1; 0 0 1 1; 0 0 1 1; 0 0 1 1; 0 0 1 1; 0 0 1 1; 0 0 1 1; 0 0 1 1; 0 0 1 1; 0 0 1 1; 0 0 1 1; 0 0 1 1; 0 0 1 1; 0 0 1 1; 0 0 1 1; 0 0 1 1; 0 0 1 1; 0 0 1 1; 0 0 1 1; 0 0 1 1" fill="freeze" /><g transform="scale(0,0)"><animateTransform repeatCount="indefinite" type="scale" attributeName="transform" dur="3.033s" begin="0s" calcMode="spline" values="0 0; 0 0; 1 1; 1 1" keyTimes="0; 0.131868; 0.241758; 1" keySplines="0 0 1 1; 0 0 1 1; 0 0 1 1" fill="freeze" /><g transform="translate(-243.802,-336.033)"><g id="i8" transform="matrix(1,0,0,1,243.802,328.2)"><ellipse ry="11.742" rx="27.399" cy="0" cx="0" fill="#ffdf75" /></g><g id="i9" transform="matrix(1,0,0,1,243.802,328.2)"><path fill="#ffc052" d="M43.056,0C43.056,12.956,23.798,23.485,0,23.485C-23.798,23.485,-43.056,12.956,-43.056,0C-43.056,-12.956,-23.798,-23.485,0,-23.485C5.743,-23.495,11.469,-22.852,17.066,-21.567C32.371,-17.966,43.056,-9.668,43.056,0ZM27.399,0C27.399,-6.498,15.148,-11.743,0,-11.743C-15.148,-11.743,-27.399,-6.498,-27.399,0C-27.399,6.498,-15.148,11.743,0,11.743C15.148,11.743,27.399,6.498,27.399,0Z" /></g><g id="i10" transform="matrix(1,0,0,1,243.802,347.771)"><path fill="#ffcb52" d="M-43.056,-3.914C-43.056,-3.914,-43.056,-19.571,-43.056,-19.571C-43.056,-6.615,-23.798,3.914,0,3.914C23.798,3.914,43.056,-6.615,43.056,-19.571C43.056,-19.571,43.056,-3.914,43.056,-3.914C43.056,9.042,23.798,19.571,0,19.571C-23.798,19.571,-43.056,9.042,-43.056,-3.914Z" /></g><g id="i11" transform="matrix(1,0,0,1,243.802,323.308)"><path fill="#c97c10" d="M27.399,4.893C27.405,5.565,27.273,6.232,27.008,6.85C24.855,1.292,13.582,-2.936,0,-2.936C-13.582,-2.936,-24.855,1.292,-27.008,6.85C-27.273,6.232,-27.405,5.565,-27.399,4.893C-27.399,-1.605,-15.148,-6.85,0,-6.85C15.148,-6.85,27.399,-1.605,27.399,4.893Z" /></g><g id="i12" transform="matrix(1,0,0,1,243.802,347.775)"><path fill="#de8800" d="M43.056,-11.746C43.056,-11.746,43.056,-3.918,43.056,-3.918C43.056,9.038,23.798,19.567,0,19.567C-9.407,19.707,-18.739,17.881,-27.399,14.205C-36.95,9.899,-43.056,3.362,-43.056,-3.918C-43.056,-3.918,-43.056,-19.575,-43.056,-19.575C-43.056,-12.295,-36.95,-5.758,-27.399,-1.452C-27.399,-1.452,-27.399,-1.452,-27.399,-1.452C-27.424,3.523,-24.125,7.903,-19.336,9.253C-13.029,10.935,-6.527,11.771,0,11.739C23.798,11.739,43.056,1.21,43.056,-11.746Z" /></g></g></g></g></g><g visibility="hidden" id="i23"><animate repeatCount="indefinite" begin="0s" calcMode="discrete" dur="3.033s" values="hidden; visible; visible; visible" keyTimes="0; 0.153983; 0.99989; 1" attributeName="visibility" /><g transform="translate(243.802,225.376)"><animateTransform repeatCount="indefinite" type="translate" attributeName="transform" dur="3.033s" begin="0s" calcMode="spline" values="243.802 225.376; 243.802 225.376; 243.802 227.432; 243.802 232.675; 243.802 240.173; 243.802 249.362; 243.802 259.867; 243.802 271.359; 243.802 283.579; 243.802 308.937; 243.802 320.376; 243.802 315.382; 243.802 312.222; 243.802 310.895; 243.802 311.401; 243.802 313.741; 243.802 317.914; 243.802 318.648; 243.802 316.942; 243.802 317.07; 243.802 319.031; 243.802 319.137; 243.802 320.192; 243.802 320.192" keyTimes="0; 0.263736; 0.274725; 0.285714; 0.296703; 0.307692; 0.318681; 0.32967; 0.340659; 0.362637; 0.373627; 0.384615; 0.395604; 0.406593; 0.417583; 0.428572; 0.43956; 0.450549; 0.461539; 0.472528; 0.483517; 0.505495; 0.516484; 1" keySplines="0 0 1 1; 0 0 1 1; 0 0 1 1; 0 0 1 1; 0 0 1 1; 0 0 1 1; 0 0 1 1; 0 0 1 1; 0 0 1 1; 0 0 1 1; 0 0 1 1; 0 0 1 1; 0 0 1 1; 0 0 1 1; 0 0 1 1; 0 0 1 1; 0 0 1 1; 0 0 1 1; 0 0 1 1; 0 0 1 1; 0 0 1 1; 0 0 1 1; 0 0 1 1" fill="freeze" /><g transform="scale(0,0)"><animateTransform repeatCount="indefinite" type="scale" attributeName="transform" dur="3.033s" begin="0s" calcMode="spline" values="0 0; 0 0; 1 1; 1 1" keyTimes="0; 0.153846; 0.263736; 1" keySplines="0 0 1 1; 0 0 1 1; 0 0 1 1" fill="freeze" /><g transform="translate(-243.802,-320.376)"><g id="i8" transform="matrix(1,0,0,1,243.802,312.543)"><ellipse ry="11.742" rx="27.399" cy="0" cx="0" fill="#ffdf75" /></g><g id="i9" transform="matrix(1,0,0,1,243.802,312.543)"><path fill="#ffc052" d="M43.056,0C43.056,12.956,23.798,23.485,0,23.485C-23.798,23.485,-43.056,12.956,-43.056,0C-43.056,-12.956,-23.798,-23.485,0,-23.485C5.743,-23.495,11.469,-22.852,17.066,-21.567C32.371,-17.966,43.056,-9.668,43.056,0ZM27.399,0C27.399,-6.498,15.148,-11.743,0,-11.743C-15.148,-11.743,-27.399,-6.498,-27.399,0C-27.399,6.498,-15.148,11.743,0,11.743C15.148,11.743,27.399,6.498,27.399,0Z" /></g><g id="i10" transform="matrix(1,0,0,1,243.802,332.115)"><path fill="#f09413" d="M-43.056,-3.914C-43.056,-3.914,-43.056,-19.571,-43.056,-19.571C-43.056,-6.615,-23.798,3.914,0,3.914C23.798,3.914,43.056,-6.615,43.056,-19.571C43.056,-19.571,43.056,-3.914,43.056,-3.914C43.056,9.042,23.798,19.571,0,19.571C-23.798,19.571,-43.056,9.042,-43.056,-3.914Z" /></g><g id="i11" transform="matrix(1,0,0,1,243.802,307.651)"><path fill="#c97c10" d="M27.399,4.893C27.405,5.565,27.273,6.232,27.008,6.85C24.855,1.292,13.582,-2.936,0,-2.936C-13.582,-2.936,-24.855,1.292,-27.008,6.85C-27.273,6.232,-27.405,5.565,-27.399,4.893C-27.399,-1.605,-15.148,-6.85,0,-6.85C15.148,-6.85,27.399,-1.605,27.399,4.893Z" /></g><g id="i12" transform="matrix(1,0,0,1,243.802,332.118)"><path fill="#de8800" d="M43.056,-11.746C43.056,-11.746,43.056,-3.918,43.056,-3.918C43.056,9.038,23.798,19.567,0,19.567C-9.407,19.707,-18.739,17.881,-27.399,14.205C-36.95,9.899,-43.056,3.362,-43.056,-3.918C-43.056,-3.918,-43.056,-19.575,-43.056,-19.575C-43.056,-12.295,-36.95,-5.758,-27.399,-1.452C-27.399,-1.452,-27.399,-1.452,-27.399,-1.452C-27.424,3.523,-24.125,7.903,-19.336,9.253C-13.029,10.935,-6.527,11.771,0,11.739C23.798,11.739,43.056,1.21,43.056,-11.746Z" /></g></g></g></g></g><g visibility="hidden" id="i24"><animate repeatCount="indefinite" begin="0s" calcMode="discrete" dur="3.033s" values="hidden; visible; visible; visible" keyTimes="0; 0.175981; 0.99989; 1" attributeName="visibility" /><g transform="translate(243.802,209.726)"><animateTransform repeatCount="indefinite" type="translate" attributeName="transform" dur="3.033s" begin="0s" calcMode="spline" values="243.802 209.726; 243.802 209.726; 243.802 211.783; 243.802 217.026; 243.802 224.524; 243.802 233.713; 243.802 244.217; 243.802 255.709; 243.802 267.93; 243.802 293.288; 243.802 304.726; 243.802 299.733; 243.802 296.572; 243.802 295.245; 243.802 295.752; 243.802 298.091; 243.802 302.264; 243.802 302.998; 243.802 301.293; 243.802 301.421; 243.802 303.382; 243.802 303.487; 243.802 304.543; 243.802 304.543" keyTimes="0; 0.285714; 0.296703; 0.307693; 0.318681; 0.32967; 0.340659; 0.351649; 0.362638; 0.384615; 0.395605; 0.406594; 0.417583; 0.428572; 0.439561; 0.45055; 0.461539; 0.472528; 0.483517; 0.494506; 0.505495; 0.527473; 0.538462; 1" keySplines="0 0 1 1; 0 0 1 1; 0 0 1 1; 0 0 1 1; 0 0 1 1; 0 0 1 1; 0 0 1 1; 0 0 1 1; 0 0 1 1; 0 0 1 1; 0 0 1 1; 0 0 1 1; 0 0 1 1; 0 0 1 1; 0 0 1 1; 0 0 1 1; 0 0 1 1; 0 0 1 1; 0 0 1 1; 0 0 1 1; 0 0 1 1; 0 0 1 1; 0 0 1 1" fill="freeze" /><g transform="scale(0,0)"><animateTransform repeatCount="indefinite" type="scale" attributeName="transform" dur="3.033s" begin="0s" calcMode="spline" values="0 0; 0 0; 1 1; 1 1" keyTimes="0; 0.175824; 0.285714; 1" keySplines="0 0 1 1; 0 0 1 1; 0 0 1 1" fill="freeze" /><g transform="translate(-243.802,-304.726)"><g id="i8" transform="matrix(1,0,0,1,243.802,296.894)"><ellipse ry="11.742" rx="27.399" cy="0" cx="0" fill="#ffdf75" /></g><g id="i9" transform="matrix(1,0,0,1,243.802,296.894)"><path fill="#ffc052" d="M43.056,0C43.056,12.956,23.798,23.485,0,23.485C-23.798,23.485,-43.056,12.956,-43.056,0C-43.056,-12.956,-23.798,-23.485,0,-23.485C5.743,-23.495,11.469,-22.852,17.066,-21.567C32.371,-17.966,43.056,-9.668,43.056,0ZM27.399,0C27.399,-6.498,15.148,-11.743,0,-11.743C-15.148,-11.743,-27.399,-6.498,-27.399,0C-27.399,6.498,-15.148,11.743,0,11.743C15.148,11.743,27.399,6.498,27.399,0Z" /></g><g id="i10" transform="matrix(1,0,0,1,243.802,316.465)"><path fill="#ffcb52" d="M-43.056,-3.914C-43.056,-3.914,-43.056,-19.571,-43.056,-19.571C-43.056,-6.615,-23.798,3.914,0,3.914C23.798,3.914,43.056,-6.615,43.056,-19.571C43.056,-19.571,43.056,-3.914,43.056,-3.914C43.056,9.042,23.798,19.571,0,19.571C-23.798,19.571,-43.056,9.042,-43.056,-3.914Z" /></g><g id="i11" transform="matrix(1,0,0,1,243.802,292.001)"><path fill="#c97c10" d="M27.399,4.893C27.405,5.565,27.273,6.232,27.008,6.85C24.855,1.292,13.582,-2.936,0,-2.936C-13.582,-2.936,-24.855,1.292,-27.008,6.85C-27.273,6.232,-27.405,5.565,-27.399,4.893C-27.399,-1.605,-15.148,-6.85,0,-6.85C15.148,-6.85,27.399,-1.605,27.399,4.893Z" /></g><g id="i12" transform="matrix(1,0,0,1,243.802,316.469)"><path fill="#de8800" d="M43.056,-11.746C43.056,-11.746,43.056,-3.918,43.056,-3.918C43.056,9.038,23.798,19.567,0,19.567C-9.407,19.707,-18.739,17.881,-27.399,14.205C-36.95,9.899,-43.056,3.362,-43.056,-3.918C-43.056,-3.918,-43.056,-19.575,-43.056,-19.575C-43.056,-12.295,-36.95,-5.758,-27.399,-1.452C-27.399,-1.452,-27.399,-1.452,-27.399,-1.452C-27.424,3.523,-24.125,7.903,-19.336,9.253C-13.029,10.935,-6.527,11.771,0,11.739C23.798,11.739,43.056,1.21,43.056,-11.746Z" /></g></g></g></g></g><g visibility="hidden" id="i25"><animate repeatCount="indefinite" begin="0s" calcMode="discrete" dur="3.033s" values="hidden; visible; visible; visible" keyTimes="0; 0.197978; 0.99989; 1" attributeName="visibility" /><g transform="translate(243.802,194.062)"><animateTransform repeatCount="indefinite" type="translate" attributeName="transform" dur="3.033s" begin="0s" calcMode="spline" values="243.802 194.062; 243.802 194.062; 243.802 196.118; 243.802 201.362; 243.802 208.859; 243.802 218.048; 243.802 228.553; 243.802 240.045; 243.802 252.265; 243.802 277.623; 243.802 289.062; 243.802 284.068; 243.802 280.908; 243.802 279.581; 243.802 280.087; 243.802 282.427; 243.802 286.6; 243.802 287.334; 243.802 285.628; 243.802 285.756; 243.802 287.717; 243.802 287.823; 243.802 288.878; 243.802 288.878" keyTimes="0; 0.307692; 0.318681; 0.32967; 0.340659; 0.351648; 0.362637; 0.373626; 0.384615; 0.406593; 0.417582; 0.428571; 0.43956; 0.450549; 0.461539; 0.472527; 0.483516; 0.494505; 0.505495; 0.516484; 0.527472; 0.549451; 0.56044; 1" keySplines="0 0 1 1; 0 0 1 1; 0 0 1 1; 0 0 1 1; 0 0 1 1; 0 0 1 1; 0 0 1 1; 0 0 1 1; 0 0 1 1; 0 0 1 1; 0 0 1 1; 0 0 1 1; 0 0 1 1; 0 0 1 1; 0 0 1 1; 0 0 1 1; 0 0 1 1; 0 0 1 1; 0 0 1 1; 0 0 1 1; 0 0 1 1; 0 0 1 1; 0 0 1 1" fill="freeze" /><g transform="scale(0,0)"><animateTransform repeatCount="indefinite" type="scale" attributeName="transform" dur="3.033s" begin="0s" calcMode="spline" values="0 0; 0 0; 1 1; 1 1" keyTimes="0; 0.197802; 0.307692; 1" keySplines="0 0 1 1; 0 0 1 1; 0 0 1 1" fill="freeze" /><g transform="translate(-243.802,-289.062)"><g id="i8" transform="matrix(1,0,0,1,243.802,281.23)"><ellipse ry="11.742" rx="27.399" cy="0" cx="0" fill="#ffdf75" /></g><g id="i9" transform="matrix(1,0,0,1,243.802,281.23)"><path fill="#ffc052" d="M43.056,0C43.056,12.956,23.798,23.485,0,23.485C-23.798,23.485,-43.056,12.956,-43.056,0C-43.056,-12.956,-23.798,-23.485,0,-23.485C5.743,-23.495,11.469,-22.852,17.066,-21.567C32.371,-17.966,43.056,-9.668,43.056,0ZM27.399,0C27.399,-6.498,15.148,-11.743,0,-11.743C-15.148,-11.743,-27.399,-6.498,-27.399,0C-27.399,6.498,-15.148,11.743,0,11.743C15.148,11.743,27.399,6.498,27.399,0Z" /></g><g id="i10" transform="matrix(1,0,0,1,243.802,300.801)"><path fill="#f09413" d="M-43.056,-3.914C-43.056,-3.914,-43.056,-19.571,-43.056,-19.571C-43.056,-6.615,-23.798,3.914,0,3.914C23.798,3.914,43.056,-6.615,43.056,-19.571C43.056,-19.571,43.056,-3.914,43.056,-3.914C43.056,9.042,23.798,19.571,0,19.571C-23.798,19.571,-43.056,9.042,-43.056,-3.914Z" /></g><g id="i11" transform="matrix(1,0,0,1,243.802,276.337)"><path fill="#c97c10" d="M27.399,4.893C27.405,5.565,27.273,6.232,27.008,6.85C24.855,1.292,13.582,-2.936,0,-2.936C-13.582,-2.936,-24.855,1.292,-27.008,6.85C-27.273,6.232,-27.405,5.565,-27.399,4.893C-27.399,-1.605,-15.148,-6.85,0,-6.85C15.148,-6.85,27.399,-1.605,27.399,4.893Z" /></g><g id="i12" transform="matrix(1,0,0,1,243.802,300.805)"><path fill="#de8800" d="M43.056,-11.746C43.056,-11.746,43.056,-3.918,43.056,-3.918C43.056,9.038,23.798,19.567,0,19.567C-9.407,19.707,-18.739,17.881,-27.399,14.205C-36.95,9.899,-43.056,3.362,-43.056,-3.918C-43.056,-3.918,-43.056,-19.575,-43.056,-19.575C-43.056,-12.295,-36.95,-5.758,-27.399,-1.452C-27.399,-1.452,-27.399,-1.452,-27.399,-1.452C-27.424,3.523,-24.125,7.903,-19.336,9.253C-13.029,10.935,-6.527,11.771,0,11.739C23.798,11.739,43.056,1.21,43.056,-11.746Z" /></g></g></g></g></g><g visibility="hidden" id="i26"><animate repeatCount="indefinite" begin="0s" calcMode="discrete" dur="3.033s" values="hidden; visible; visible; visible" keyTimes="0; 0.109988; 0.99989; 1" attributeName="visibility" /><g transform="translate(348.176,256.693)"><animateTransform repeatCount="indefinite" type="translate" attributeName="transform" dur="3.033s" begin="0s" calcMode="spline" values="348.176 256.693; 348.176 256.693; 348.176 258.749; 348.176 263.993; 348.176 271.49; 348.176 280.679; 348.176 291.184; 348.176 302.676; 348.176 314.896; 348.176 340.254; 348.176 351.693; 348.176 346.699; 348.176 343.539; 348.176 342.212; 348.176 342.718; 348.176 345.058; 348.176 349.231; 348.176 349.965; 348.176 348.26; 348.176 348.387; 348.176 350.348; 348.176 350.454; 348.176 351.509; 348.176 351.509" keyTimes="0; 0.21978; 0.230769; 0.241758; 0.252747; 0.263736; 0.274725; 0.285715; 0.296703; 0.318681; 0.329671; 0.34066; 0.351648; 0.362637; 0.373627; 0.384616; 0.395605; 0.406593; 0.417583; 0.428572; 0.439561; 0.461539; 0.472528; 1" keySplines="0 0 1 1; 0 0 1 1; 0 0 1 1; 0 0 1 1; 0 0 1 1; 0 0 1 1; 0 0 1 1; 0 0 1 1; 0 0 1 1; 0 0 1 1; 0 0 1 1; 0 0 1 1; 0 0 1 1; 0 0 1 1; 0 0 1 1; 0 0 1 1; 0 0 1 1; 0 0 1 1; 0 0 1 1; 0 0 1 1; 0 0 1 1; 0 0 1 1; 0 0 1 1" fill="freeze" /><g transform="scale(0,0)"><animateTransform repeatCount="indefinite" type="scale" attributeName="transform" dur="3.033s" begin="0s" calcMode="spline" values="0 0; 0 0; 1 1; 1 1" keyTimes="0; 0.10989; 0.21978; 1" keySplines="0 0 1 1; 0 0 1 1; 0 0 1 1" fill="freeze" /><g transform="translate(-348.176,-351.693)"><g id="i8" transform="matrix(1,0,0,1,348.176,343.861)"><ellipse ry="11.742" rx="27.399" cy="0" cx="0" fill="#ffdf75" /></g><g id="i9" transform="matrix(1,0,0,1,348.176,343.861)"><path fill="#ffc052" d="M43.056,0C43.056,12.956,23.798,23.485,0,23.485C-23.798,23.485,-43.056,12.956,-43.056,0C-43.056,-12.956,-23.798,-23.485,0,-23.485C5.743,-23.495,11.469,-22.852,17.066,-21.567C32.371,-17.966,43.056,-9.668,43.056,0ZM27.399,0C27.399,-6.498,15.148,-11.743,0,-11.743C-15.148,-11.743,-27.399,-6.498,-27.399,0C-27.399,6.498,-15.148,11.743,0,11.743C15.148,11.743,27.399,6.498,27.399,0Z" /></g><g id="i10" transform="matrix(1,0,0,1,348.176,363.432)"><path fill="#f09413" d="M-43.056,-3.914C-43.056,-3.914,-43.056,-19.571,-43.056,-19.571C-43.056,-6.615,-23.798,3.914,0,3.914C23.798,3.914,43.056,-6.615,43.056,-19.571C43.056,-19.571,43.056,-3.914,43.056,-3.914C43.056,9.042,23.798,19.571,0,19.571C-23.798,19.571,-43.056,9.042,-43.056,-3.914Z" /></g><g id="i11" transform="matrix(1,0,0,1,348.176,338.968)"><path fill="#c97c10" d="M27.399,4.893C27.405,5.565,27.273,6.232,27.008,6.85C24.855,1.292,13.582,-2.936,0,-2.936C-13.582,-2.936,-24.855,1.292,-27.008,6.85C-27.273,6.232,-27.405,5.565,-27.399,4.893C-27.399,-1.605,-15.148,-6.85,0,-6.85C15.148,-6.85,27.399,-1.605,27.399,4.893Z" /></g><g id="i12" transform="matrix(1,0,0,1,348.176,363.436)"><path fill="#de8800" d="M43.056,-11.746C43.056,-11.746,43.056,-3.918,43.056,-3.918C43.056,9.038,23.798,19.567,0,19.567C-9.407,19.707,-18.739,17.881,-27.399,14.205C-36.95,9.899,-43.056,3.362,-43.056,-3.918C-43.056,-3.918,-43.056,-19.575,-43.056,-19.575C-43.056,-12.295,-36.95,-5.758,-27.399,-1.452C-27.399,-1.452,-27.399,-1.452,-27.399,-1.452C-27.424,3.523,-24.125,7.903,-19.336,9.253C-13.029,10.935,-6.527,11.771,0,11.739C23.798,11.739,43.056,1.21,43.056,-11.746Z" /></g></g></g></g></g><g visibility="hidden" id="i27"><animate repeatCount="indefinite" begin="0s" calcMode="discrete" dur="3.033s" values="hidden; visible; visible; visible" keyTimes="0; 0.131985; 0.99989; 1" attributeName="visibility" /><g transform="translate(348.176,241.033)"><animateTransform repeatCount="indefinite" type="translate" attributeName="transform" dur="3.033s" begin="0s" calcMode="spline" values="348.176 241.033; 348.176 241.033; 348.176 243.089; 348.176 248.332; 348.176 255.83; 348.176 265.019; 348.176 275.524; 348.176 287.016; 348.176 299.236; 348.176 324.594; 348.176 336.033; 348.176 331.039; 348.176 327.879; 348.176 326.552; 348.176 327.058; 348.176 329.398; 348.176 333.571; 348.176 334.305; 348.176 332.599; 348.176 332.727; 348.176 334.688; 348.176 334.794; 348.176 335.849; 348.176 335.849" keyTimes="0; 0.241758; 0.252747; 0.263736; 0.274725; 0.285714; 0.296703; 0.307692; 0.318681; 0.340659; 0.351648; 0.362637; 0.373626; 0.384615; 0.395604; 0.406593; 0.417582; 0.428571; 0.43956; 0.450549; 0.461538; 0.483517; 0.494505; 1" keySplines="0 0 1 1; 0 0 1 1; 0 0 1 1; 0 0 1 1; 0 0 1 1; 0 0 1 1; 0 0 1 1; 0 0 1 1; 0 0 1 1; 0 0 1 1; 0 0 1 1; 0 0 1 1; 0 0 1 1; 0 0 1 1; 0 0 1 1; 0 0 1 1; 0 0 1 1; 0 0 1 1; 0 0 1 1; 0 0 1 1; 0 0 1 1; 0 0 1 1; 0 0 1 1" fill="freeze" /><g transform="scale(0,0)"><animateTransform repeatCount="indefinite" type="scale" attributeName="transform" dur="3.033s" begin="0s" calcMode="spline" values="0 0; 0 0; 1 1; 1 1" keyTimes="0; 0.131868; 0.241758; 1" keySplines="0 0 1 1; 0 0 1 1; 0 0 1 1" fill="freeze" /><g transform="translate(-348.176,-336.033)"><g id="i8" transform="matrix(1,0,0,1,348.176,328.2)"><ellipse ry="11.742" rx="27.399" cy="0" cx="0" fill="#ffdf75" /></g><g id="i9" transform="matrix(1,0,0,1,348.176,328.2)"><path fill="#ffc052" d="M43.056,0C43.056,12.956,23.798,23.485,0,23.485C-23.798,23.485,-43.056,12.956,-43.056,0C-43.056,-12.956,-23.798,-23.485,0,-23.485C5.743,-23.495,11.469,-22.852,17.066,-21.567C32.371,-17.966,43.056,-9.668,43.056,0ZM27.399,0C27.399,-6.498,15.148,-11.743,0,-11.743C-15.148,-11.743,-27.399,-6.498,-27.399,0C-27.399,6.498,-15.148,11.743,0,11.743C15.148,11.743,27.399,6.498,27.399,0Z" /></g><g id="i10" transform="matrix(1,0,0,1,348.176,347.771)"><path fill="#ffcb52" d="M-43.056,-3.914C-43.056,-3.914,-43.056,-19.571,-43.056,-19.571C-43.056,-6.615,-23.798,3.914,0,3.914C23.798,3.914,43.056,-6.615,43.056,-19.571C43.056,-19.571,43.056,-3.914,43.056,-3.914C43.056,9.042,23.798,19.571,0,19.571C-23.798,19.571,-43.056,9.042,-43.056,-3.914Z" /></g><g id="i11" transform="matrix(1,0,0,1,348.176,323.308)"><path fill="#c97c10" d="M27.399,4.893C27.405,5.565,27.273,6.232,27.008,6.85C24.855,1.292,13.582,-2.936,0,-2.936C-13.582,-2.936,-24.855,1.292,-27.008,6.85C-27.273,6.232,-27.405,5.565,-27.399,4.893C-27.399,-1.605,-15.148,-6.85,0,-6.85C15.148,-6.85,27.399,-1.605,27.399,4.893Z" /></g><g id="i12" transform="matrix(1,0,0,1,348.176,347.775)"><path fill="#de8800" d="M43.056,-11.746C43.056,-11.746,43.056,-3.918,43.056,-3.918C43.056,9.038,23.798,19.567,0,19.567C-9.407,19.707,-18.739,17.881,-27.399,14.205C-36.95,9.899,-43.056,3.362,-43.056,-3.918C-43.056,-3.918,-43.056,-19.575,-43.056,-19.575C-43.056,-12.295,-36.95,-5.758,-27.399,-1.452C-27.399,-1.452,-27.399,-1.452,-27.399,-1.452C-27.424,3.523,-24.125,7.903,-19.336,9.253C-13.029,10.935,-6.527,11.771,0,11.739C23.798,11.739,43.056,1.21,43.056,-11.746Z" /></g></g></g></g></g><g visibility="hidden" id="i28"><animate repeatCount="indefinite" begin="0s" calcMode="discrete" dur="3.033s" values="hidden; visible; visible; visible" keyTimes="0; 0.153983; 0.99989; 1" attributeName="visibility" /><g transform="translate(348.176,225.376)"><animateTransform repeatCount="indefinite" type="translate" attributeName="transform" dur="3.033s" begin="0s" calcMode="spline" values="348.176 225.376; 348.176 225.376; 348.176 227.432; 348.176 232.675; 348.176 240.173; 348.176 249.362; 348.176 259.867; 348.176 271.359; 348.176 283.579; 348.176 308.937; 348.176 320.376; 348.176 315.382; 348.176 312.222; 348.176 310.895; 348.176 311.401; 348.176 313.741; 348.176 317.914; 348.176 318.648; 348.176 316.942; 348.176 317.07; 348.176 319.031; 348.176 319.137; 348.176 320.192; 348.176 320.192" keyTimes="0; 0.263736; 0.274725; 0.285714; 0.296703; 0.307692; 0.318681; 0.32967; 0.340659; 0.362637; 0.373627; 0.384615; 0.395604; 0.406593; 0.417583; 0.428572; 0.43956; 0.450549; 0.461539; 0.472528; 0.483517; 0.505495; 0.516484; 1" keySplines="0 0 1 1; 0 0 1 1; 0 0 1 1; 0 0 1 1; 0 0 1 1; 0 0 1 1; 0 0 1 1; 0 0 1 1; 0 0 1 1; 0 0 1 1; 0 0 1 1; 0 0 1 1; 0 0 1 1; 0 0 1 1; 0 0 1 1; 0 0 1 1; 0 0 1 1; 0 0 1 1; 0 0 1 1; 0 0 1 1; 0 0 1 1; 0 0 1 1; 0 0 1 1" fill="freeze" /><g transform="scale(0,0)"><animateTransform repeatCount="indefinite" type="scale" attributeName="transform" dur="3.033s" begin="0s" calcMode="spline" values="0 0; 0 0; 1 1; 1 1" keyTimes="0; 0.153846; 0.263736; 1" keySplines="0 0 1 1; 0 0 1 1; 0 0 1 1" fill="freeze" /><g transform="translate(-348.176,-320.376)"><g id="i8" transform="matrix(1,0,0,1,348.176,312.543)"><ellipse ry="11.742" rx="27.399" cy="0" cx="0" fill="#ffdf75" /></g><g id="i9" transform="matrix(1,0,0,1,348.176,312.543)"><path fill="#ffc052" d="M43.056,0C43.056,12.956,23.798,23.485,0,23.485C-23.798,23.485,-43.056,12.956,-43.056,0C-43.056,-12.956,-23.798,-23.485,0,-23.485C5.743,-23.495,11.469,-22.852,17.066,-21.567C32.371,-17.966,43.056,-9.668,43.056,0ZM27.399,0C27.399,-6.498,15.148,-11.743,0,-11.743C-15.148,-11.743,-27.399,-6.498,-27.399,0C-27.399,6.498,-15.148,11.743,0,11.743C15.148,11.743,27.399,6.498,27.399,0Z" /></g><g id="i10" transform="matrix(1,0,0,1,348.176,332.115)"><path fill="#f09413" d="M-43.056,-3.914C-43.056,-3.914,-43.056,-19.571,-43.056,-19.571C-43.056,-6.615,-23.798,3.914,0,3.914C23.798,3.914,43.056,-6.615,43.056,-19.571C43.056,-19.571,43.056,-3.914,43.056,-3.914C43.056,9.042,23.798,19.571,0,19.571C-23.798,19.571,-43.056,9.042,-43.056,-3.914Z" /></g><g id="i11" transform="matrix(1,0,0,1,348.176,307.651)"><path fill="#c97c10" d="M27.399,4.893C27.405,5.565,27.273,6.232,27.008,6.85C24.855,1.292,13.582,-2.936,0,-2.936C-13.582,-2.936,-24.855,1.292,-27.008,6.85C-27.273,6.232,-27.405,5.565,-27.399,4.893C-27.399,-1.605,-15.148,-6.85,0,-6.85C15.148,-6.85,27.399,-1.605,27.399,4.893Z" /></g><g id="i12" transform="matrix(1,0,0,1,348.176,332.118)"><path fill="#de8800" d="M43.056,-11.746C43.056,-11.746,43.056,-3.918,43.056,-3.918C43.056,9.038,23.798,19.567,0,19.567C-9.407,19.707,-18.739,17.881,-27.399,14.205C-36.95,9.899,-43.056,3.362,-43.056,-3.918C-43.056,-3.918,-43.056,-19.575,-43.056,-19.575C-43.056,-12.295,-36.95,-5.758,-27.399,-1.452C-27.399,-1.452,-27.399,-1.452,-27.399,-1.452C-27.424,3.523,-24.125,7.903,-19.336,9.253C-13.029,10.935,-6.527,11.771,0,11.739C23.798,11.739,43.056,1.21,43.056,-11.746Z" /></g></g></g></g></g><g visibility="hidden" id="i29"><animate repeatCount="indefinite" begin="0s" calcMode="discrete" dur="3.033s" values="hidden; visible; visible; visible" keyTimes="0; 0.175981; 0.99989; 1" attributeName="visibility" /><g transform="translate(348.176,209.726)"><animateTransform repeatCount="indefinite" type="translate" attributeName="transform" dur="3.033s" begin="0s" calcMode="spline" values="348.176 209.726; 348.176 209.726; 348.176 211.783; 348.176 217.026; 348.176 224.524; 348.176 233.713; 348.176 244.217; 348.176 255.709; 348.176 267.93; 348.176 293.288; 348.176 304.726; 348.176 299.733; 348.176 296.572; 348.176 295.245; 348.176 295.752; 348.176 298.091; 348.176 302.264; 348.176 302.998; 348.176 301.293; 348.176 301.421; 348.176 303.382; 348.176 303.487; 348.176 304.543; 348.176 304.543" keyTimes="0; 0.285714; 0.296703; 0.307693; 0.318681; 0.32967; 0.340659; 0.351649; 0.362638; 0.384615; 0.395605; 0.406594; 0.417583; 0.428572; 0.439561; 0.45055; 0.461539; 0.472528; 0.483517; 0.494506; 0.505495; 0.527473; 0.538462; 1" keySplines="0 0 1 1; 0 0 1 1; 0 0 1 1; 0 0 1 1; 0 0 1 1; 0 0 1 1; 0 0 1 1; 0 0 1 1; 0 0 1 1; 0 0 1 1; 0 0 1 1; 0 0 1 1; 0 0 1 1; 0 0 1 1; 0 0 1 1; 0 0 1 1; 0 0 1 1; 0 0 1 1; 0 0 1 1; 0 0 1 1; 0 0 1 1; 0 0 1 1; 0 0 1 1" fill="freeze" /><g transform="scale(0,0)"><animateTransform repeatCount="indefinite" type="scale" attributeName="transform" dur="3.033s" begin="0s" calcMode="spline" values="0 0; 0 0; 1 1; 1 1" keyTimes="0; 0.175824; 0.285714; 1" keySplines="0 0 1 1; 0 0 1 1; 0 0 1 1" fill="freeze" /><g transform="translate(-348.176,-304.726)"><g id="i8" transform="matrix(1,0,0,1,348.176,296.894)"><ellipse ry="11.742" rx="27.399" cy="0" cx="0" fill="#ffdf75" /></g><g id="i9" transform="matrix(1,0,0,1,348.176,296.894)"><path fill="#ffc052" d="M43.056,0C43.056,12.956,23.798,23.485,0,23.485C-23.798,23.485,-43.056,12.956,-43.056,0C-43.056,-12.956,-23.798,-23.485,0,-23.485C5.743,-23.495,11.469,-22.852,17.066,-21.567C32.371,-17.966,43.056,-9.668,43.056,0ZM27.399,0C27.399,-6.498,15.148,-11.743,0,-11.743C-15.148,-11.743,-27.399,-6.498,-27.399,0C-27.399,6.498,-15.148,11.743,0,11.743C15.148,11.743,27.399,6.498,27.399,0Z" /></g><g id="i10" transform="matrix(1,0,0,1,348.176,316.465)"><path fill="#ffcb52" d="M-43.056,-3.914C-43.056,-3.914,-43.056,-19.571,-43.056,-19.571C-43.056,-6.615,-23.798,3.914,0,3.914C23.798,3.914,43.056,-6.615,43.056,-19.571C43.056,-19.571,43.056,-3.914,43.056,-3.914C43.056,9.042,23.798,19.571,0,19.571C-23.798,19.571,-43.056,9.042,-43.056,-3.914Z" /></g><g id="i11" transform="matrix(1,0,0,1,348.176,292.001)"><path fill="#c97c10" d="M27.399,4.893C27.405,5.565,27.273,6.232,27.008,6.85C24.855,1.292,13.582,-2.936,0,-2.936C-13.582,-2.936,-24.855,1.292,-27.008,6.85C-27.273,6.232,-27.405,5.565,-27.399,4.893C-27.399,-1.605,-15.148,-6.85,0,-6.85C15.148,-6.85,27.399,-1.605,27.399,4.893Z" /></g><g id="i12" transform="matrix(1,0,0,1,348.176,316.469)"><path fill="#de8800" d="M43.056,-11.746C43.056,-11.746,43.056,-3.918,43.056,-3.918C43.056,9.038,23.798,19.567,0,19.567C-9.407,19.707,-18.739,17.881,-27.399,14.205C-36.95,9.899,-43.056,3.362,-43.056,-3.918C-43.056,-3.918,-43.056,-19.575,-43.056,-19.575C-43.056,-12.295,-36.95,-5.758,-27.399,-1.452C-27.399,-1.452,-27.399,-1.452,-27.399,-1.452C-27.424,3.523,-24.125,7.903,-19.336,9.253C-13.029,10.935,-6.527,11.771,0,11.739C23.798,11.739,43.056,1.21,43.056,-11.746Z" /></g></g></g></g></g><g visibility="hidden" id="i30"><animate repeatCount="indefinite" begin="0s" calcMode="discrete" dur="3.033s" values="hidden; visible; visible; visible" keyTimes="0; 0.197978; 0.99989; 1" attributeName="visibility" /><g transform="translate(348.176,194.062)"><animateTransform repeatCount="indefinite" type="translate" attributeName="transform" dur="3.033s" begin="0s" calcMode="spline" values="348.176 194.062; 348.176 194.062; 348.176 196.118; 348.176 201.362; 348.176 208.859; 348.176 218.048; 348.176 228.553; 348.176 240.045; 348.176 252.265; 348.176 277.623; 348.176 289.062; 348.176 284.068; 348.176 280.908; 348.176 279.581; 348.176 280.087; 348.176 282.427; 348.176 286.6; 348.176 287.334; 348.176 285.628; 348.176 285.756; 348.176 287.717; 348.176 287.823; 348.176 288.878; 348.176 288.878" keyTimes="0; 0.307692; 0.318681; 0.32967; 0.340659; 0.351648; 0.362637; 0.373626; 0.384615; 0.406593; 0.417582; 0.428571; 0.43956; 0.450549; 0.461539; 0.472527; 0.483516; 0.494505; 0.505495; 0.516484; 0.527472; 0.549451; 0.56044; 1" keySplines="0 0 1 1; 0 0 1 1; 0 0 1 1; 0 0 1 1; 0 0 1 1; 0 0 1 1; 0 0 1 1; 0 0 1 1; 0 0 1 1; 0 0 1 1; 0 0 1 1; 0 0 1 1; 0 0 1 1; 0 0 1 1; 0 0 1 1; 0 0 1 1; 0 0 1 1; 0 0 1 1; 0 0 1 1; 0 0 1 1; 0 0 1 1; 0 0 1 1; 0 0 1 1" fill="freeze" /><g transform="scale(0,0)"><animateTransform repeatCount="indefinite" type="scale" attributeName="transform" dur="3.033s" begin="0s" calcMode="spline" values="0 0; 0 0; 1 1; 1 1" keyTimes="0; 0.197802; 0.307692; 1" keySplines="0 0 1 1; 0 0 1 1; 0 0 1 1" fill="freeze" /><g transform="translate(-348.176,-289.062)"><g id="i8" transform="matrix(1,0,0,1,348.176,281.23)"><ellipse ry="11.742" rx="27.399" cy="0" cx="0" fill="#ffdf75" /></g><g id="i9" transform="matrix(1,0,0,1,348.176,281.23)"><path fill="#ffc052" d="M43.056,0C43.056,12.956,23.798,23.485,0,23.485C-23.798,23.485,-43.056,12.956,-43.056,0C-43.056,-12.956,-23.798,-23.485,0,-23.485C5.743,-23.495,11.469,-22.852,17.066,-21.567C32.371,-17.966,43.056,-9.668,43.056,0ZM27.399,0C27.399,-6.498,15.148,-11.743,0,-11.743C-15.148,-11.743,-27.399,-6.498,-27.399,0C-27.399,6.498,-15.148,11.743,0,11.743C15.148,11.743,27.399,6.498,27.399,0Z" /></g><g id="i10" transform="matrix(1,0,0,1,348.176,300.801)"><path fill="#f09413" d="M-43.056,-3.914C-43.056,-3.914,-43.056,-19.571,-43.056,-19.571C-43.056,-6.615,-23.798,3.914,0,3.914C23.798,3.914,43.056,-6.615,43.056,-19.571C43.056,-19.571,43.056,-3.914,43.056,-3.914C43.056,9.042,23.798,19.571,0,19.571C-23.798,19.571,-43.056,9.042,-43.056,-3.914Z" /></g><g id="i11" transform="matrix(1,0,0,1,348.176,276.337)"><path fill="#c97c10" d="M27.399,4.893C27.405,5.565,27.273,6.232,27.008,6.85C24.855,1.292,13.582,-2.936,0,-2.936C-13.582,-2.936,-24.855,1.292,-27.008,6.85C-27.273,6.232,-27.405,5.565,-27.399,4.893C-27.399,-1.605,-15.148,-6.85,0,-6.85C15.148,-6.85,27.399,-1.605,27.399,4.893Z" /></g><g id="i12" transform="matrix(1,0,0,1,348.176,300.805)"><path fill="#de8800" d="M43.056,-11.746C43.056,-11.746,43.056,-3.918,43.056,-3.918C43.056,9.038,23.798,19.567,0,19.567C-9.407,19.707,-18.739,17.881,-27.399,14.205C-36.95,9.899,-43.056,3.362,-43.056,-3.918C-43.056,-3.918,-43.056,-19.575,-43.056,-19.575C-43.056,-12.295,-36.95,-5.758,-27.399,-1.452C-27.399,-1.452,-27.399,-1.452,-27.399,-1.452C-27.424,3.523,-24.125,7.903,-19.336,9.253C-13.029,10.935,-6.527,11.771,0,11.739C23.798,11.739,43.056,1.21,43.056,-11.746Z" /></g></g></g></g></g><g visibility="hidden" id="i31"><animate repeatCount="indefinite" begin="0s" calcMode="discrete" dur="3.033s" values="hidden; visible; visible; visible" keyTimes="0; 0.219976; 0.99989; 1" attributeName="visibility" /><g transform="translate(348.176,178.409)"><animateTransform repeatCount="indefinite" type="translate" attributeName="transform" dur="3.033s" begin="0s" calcMode="spline" values="348.176 178.409; 348.176 178.409; 348.176 180.465; 348.176 185.709; 348.176 193.206; 348.176 202.395; 348.176 212.9; 348.176 224.392; 348.176 236.612; 348.176 261.97; 348.176 273.409; 348.176 268.415; 348.176 265.255; 348.176 263.928; 348.176 264.434; 348.176 266.774; 348.176 270.947; 348.176 271.681; 348.176 269.975; 348.176 270.103; 348.176 272.064; 348.176 272.17; 348.176 273.225; 348.176 273.225" keyTimes="0; 0.32967; 0.340659; 0.351648; 0.362637; 0.373626; 0.384615; 0.395605; 0.406593; 0.428571; 0.439561; 0.45055; 0.461538; 0.472527; 0.483517; 0.494506; 0.505495; 0.516483; 0.527473; 0.538462; 0.549451; 0.571429; 0.582418; 1" keySplines="0 0 1 1; 0 0 1 1; 0 0 1 1; 0 0 1 1; 0 0 1 1; 0 0 1 1; 0 0 1 1; 0 0 1 1; 0 0 1 1; 0 0 1 1; 0 0 1 1; 0 0 1 1; 0 0 1 1; 0 0 1 1; 0 0 1 1; 0 0 1 1; 0 0 1 1; 0 0 1 1; 0 0 1 1; 0 0 1 1; 0 0 1 1; 0 0 1 1; 0 0 1 1" fill="freeze" /><g transform="scale(0,0)"><animateTransform repeatCount="indefinite" type="scale" attributeName="transform" dur="3.033s" begin="0s" calcMode="spline" values="0 0; 0 0; 1 1; 1 1" keyTimes="0; 0.21978; 0.32967; 1" keySplines="0 0 1 1; 0 0 1 1; 0 0 1 1" fill="freeze" /><g transform="translate(-348.176,-273.409)"><g id="i8" transform="matrix(1,0,0,1,348.176,265.577)"><ellipse ry="11.742" rx="27.399" cy="0" cx="0" fill="#ffdf75" /></g><g id="i9" transform="matrix(1,0,0,1,348.176,265.577)"><path fill="#ffc052" d="M43.056,0C43.056,12.956,23.798,23.485,0,23.485C-23.798,23.485,-43.056,12.956,-43.056,0C-43.056,-12.956,-23.798,-23.485,0,-23.485C5.743,-23.495,11.469,-22.852,17.066,-21.567C32.371,-17.966,43.056,-9.668,43.056,0ZM27.399,0C27.399,-6.498,15.148,-11.743,0,-11.743C-15.148,-11.743,-27.399,-6.498,-27.399,0C-27.399,6.498,-15.148,11.743,0,11.743C15.148,11.743,27.399,6.498,27.399,0Z" /></g><g id="i10" transform="matrix(1,0,0,1,348.176,285.148)"><path fill="#ffcb52" d="M-43.056,-3.914C-43.056,-3.914,-43.056,-19.571,-43.056,-19.571C-43.056,-6.615,-23.798,3.914,0,3.914C23.798,3.914,43.056,-6.615,43.056,-19.571C43.056,-19.571,43.056,-3.914,43.056,-3.914C43.056,9.042,23.798,19.571,0,19.571C-23.798,19.571,-43.056,9.042,-43.056,-3.914Z" /></g><g id="i11" transform="matrix(1,0,0,1,348.176,260.684)"><path fill="#c97c10" d="M27.399,4.893C27.405,5.565,27.273,6.232,27.008,6.85C24.855,1.292,13.582,-2.936,0,-2.936C-13.582,-2.936,-24.855,1.292,-27.008,6.85C-27.273,6.232,-27.405,5.565,-27.399,4.893C-27.399,-1.605,-15.148,-6.85,0,-6.85C15.148,-6.85,27.399,-1.605,27.399,4.893Z" /></g><g id="i12" transform="matrix(1,0,0,1,348.176,285.152)"><path fill="#de8800" d="M43.056,-11.746C43.056,-11.746,43.056,-3.918,43.056,-3.918C43.056,9.038,23.798,19.567,0,19.567C-9.407,19.707,-18.739,17.881,-27.399,14.205C-36.95,9.899,-43.056,3.362,-43.056,-3.918C-43.056,-3.918,-43.056,-19.575,-43.056,-19.575C-43.056,-12.295,-36.95,-5.758,-27.399,-1.452C-27.399,-1.452,-27.399,-1.452,-27.399,-1.452C-27.424,3.523,-24.125,7.903,-19.336,9.253C-13.029,10.935,-6.527,11.771,0,11.739C23.798,11.739,43.056,1.21,43.056,-11.746Z" /></g></g></g></g></g><g visibility="hidden" id="i32"><animate repeatCount="indefinite" begin="0s" calcMode="discrete" dur="3.033s" values="hidden; visible; visible; visible" keyTimes="0; 0.241973; 0.99989; 1" attributeName="visibility" /><g transform="translate(348.176,162.744)"><animateTransform repeatCount="indefinite" type="translate" attributeName="transform" dur="3.033s" begin="0s" calcMode="spline" values="348.176 162.744; 348.176 162.744; 348.176 164.801; 348.176 170.044; 348.176 177.542; 348.176 186.731; 348.176 197.236; 348.176 208.728; 348.176 220.948; 348.176 246.306; 348.176 257.744; 348.176 252.751; 348.176 249.59; 348.176 248.263; 348.176 248.77; 348.176 251.109; 348.176 255.282; 348.176 256.016; 348.176 254.311; 348.176 254.439; 348.176 256.4; 348.176 256.506; 348.176 257.561; 348.176 257.561" keyTimes="0; 0.351648; 0.362637; 0.373627; 0.384616; 0.395605; 0.406593; 0.417583; 0.428572; 0.45055; 0.461539; 0.472528; 0.483517; 0.494506; 0.505495; 0.516484; 0.527473; 0.538462; 0.549451; 0.56044; 0.571429; 0.593407; 0.604396; 1" keySplines="0 0 1 1; 0 0 1 1; 0 0 1 1; 0 0 1 1; 0 0 1 1; 0 0 1 1; 0 0 1 1; 0 0 1 1; 0 0 1 1; 0 0 1 1; 0 0 1 1; 0 0 1 1; 0 0 1 1; 0 0 1 1; 0 0 1 1; 0 0 1 1; 0 0 1 1; 0 0 1 1; 0 0 1 1; 0 0 1 1; 0 0 1 1; 0 0 1 1; 0 0 1 1" fill="freeze" /><g transform="scale(0,0)"><animateTransform repeatCount="indefinite" type="scale" attributeName="transform" dur="3.033s" begin="0s" calcMode="spline" values="0 0; 0 0; 1 1; 1 1" keyTimes="0; 0.241758; 0.351648; 1" keySplines="0 0 1 1; 0 0 1 1; 0 0 1 1" fill="freeze" /><g transform="translate(-348.176,-257.744)"><g id="i8" transform="matrix(1,0,0,1,348.176,249.912)"><ellipse ry="11.742" rx="27.399" cy="0" cx="0" fill="#ffdf75" /></g><g id="i9" transform="matrix(1,0,0,1,348.176,249.912)"><path fill="#ffc052" d="M43.056,0C43.056,12.956,23.798,23.485,0,23.485C-23.798,23.485,-43.056,12.956,-43.056,0C-43.056,-12.956,-23.798,-23.485,0,-23.485C5.743,-23.495,11.469,-22.852,17.066,-21.567C32.371,-17.966,43.056,-9.668,43.056,0ZM27.399,0C27.399,-6.498,15.148,-11.743,0,-11.743C-15.148,-11.743,-27.399,-6.498,-27.399,0C-27.399,6.498,-15.148,11.743,0,11.743C15.148,11.743,27.399,6.498,27.399,0Z" /></g><g id="i10" transform="matrix(1,0,0,1,348.176,269.483)"><path fill="#f09413" d="M-43.056,-3.914C-43.056,-3.914,-43.056,-19.571,-43.056,-19.571C-43.056,-6.615,-23.798,3.914,0,3.914C23.798,3.914,43.056,-6.615,43.056,-19.571C43.056,-19.571,43.056,-3.914,43.056,-3.914C43.056,9.042,23.798,19.571,0,19.571C-23.798,19.571,-43.056,9.042,-43.056,-3.914Z" /></g><g id="i11" transform="matrix(1,0,0,1,348.176,245.02)"><path fill="#c97c10" d="M27.399,4.893C27.405,5.565,27.273,6.232,27.008,6.85C24.855,1.292,13.582,-2.936,0,-2.936C-13.582,-2.936,-24.855,1.292,-27.008,6.85C-27.273,6.232,-27.405,5.565,-27.399,4.893C-27.399,-1.605,-15.148,-6.85,0,-6.85C15.148,-6.85,27.399,-1.605,27.399,4.893Z" /></g><g id="i12" transform="matrix(1,0,0,1,348.176,269.487)"><path fill="#de8800" d="M43.056,-11.746C43.056,-11.746,43.056,-3.918,43.056,-3.918C43.056,9.038,23.798,19.567,0,19.567C-9.407,19.707,-18.739,17.881,-27.399,14.205C-36.95,9.899,-43.056,3.362,-43.056,-3.918C-43.056,-3.918,-43.056,-19.575,-43.056,-19.575C-43.056,-12.295,-36.95,-5.758,-27.399,-1.452C-27.399,-1.452,-27.399,-1.452,-27.399,-1.452C-27.424,3.523,-24.125,7.903,-19.336,9.253C-13.029,10.935,-6.527,11.771,0,11.739C23.798,11.739,43.056,1.21,43.056,-11.746Z" /></g></g></g></g></g></svg>